<svg xmlns="http://www.w3.org/2000/svg" width="1050" height="150" viewBox="0 0 1050 150" preserveAspectRatio="xMidYMid meet" style="width: 100%; height: 100%;"><defs><clipPath id="animationMask_8FD1MFTiM8"><rect width="1050" height="150" x="0" y="0"/></clipPath><clipPath id="cp_HV9KJhab"><path d="M0,0 L1920,0 L1920,1080 L0,1080z"/></clipPath><clipPath id="cp_SflOsTdb"><path d="M0,0 L1500,0 L1500,250 L0,250z"/></clipPath><clipPath id="cp_kDUMHLpN"><path d="M0,0 L1500,0 L1500,250 L0,250z"/></clipPath><clipPath id="cp_xsyIXyun"><path d="M0,0 L1500,0 L1500,250 L0,250z"/></clipPath><clipPath id="cp_tlswR4ac"><path d="M0,0 L1500,0 L1500,250 L0,250z"/></clipPath><clipPath id="cp_8knNlzhc"><path d="M0,0 L1500,0 L1500,250 L0,250z"/></clipPath><clipPath id="cp_jtpUVoRG"><path d="M0,0 L1500,0 L1500,250 L0,250z"/></clipPath><clipPath id="cp_rbqyfd7v"><path d="M0,0 L1500,0 L1500,250 L0,250z"/></clipPath><clipPath id="cp_khDnOHNT"><path d="M0,0 L1500,0 L1500,250 L0,250z"/></clipPath><clipPath id="cp_lgK95pF8"><path d="M0,0 L1500,0 L1500,250 L0,250z"/></clipPath><clipPath id="cp_VSFQwPM9"><path d="M0,0 L1500,0 L1500,250 L0,250z"/></clipPath><clipPath id="cp_xYcV3ecE"><path d="M0,0 L1500,0 L1500,250 L0,250z"/></clipPath></defs><g clip-path="url(https://spotify.me/en#animationMask_8FD1MFTiM8)"><g clip-path="url(https://spotify.me/en#cp_HV9KJhab)" transform="matrix(0.72,0,0,0.72,-164.19999999999993,-319.8)" opacity="1"><g clip-path="url(https://spotify.me/en#cp_xYcV3ecE)" style="display: block;" transform="matrix(1,0,0,1,210,414.562)" opacity="0.15"><g style="user-select: none; display: none;"><g><path style="display: none;"/></g></g><g style="user-select: none; display: none;"><g><path style="display: none;"/><path stroke-linecap="butt" stroke-linejoin="miter" fill-opacity="0" stroke-miterlimit="4" style="display: none;"/></g></g><g style="user-select: none; display: none;"><g><path style="display: none;"/></g></g><g style="user-select: none; display: none;"><g><path style="display: none;"/></g></g><g style="user-select: none; display: none;"><g><path style="display: none;"/></g></g><g style="user-select: none; display: none;"><g><path style="display: none;"/></g></g><g style="user-select: none; display: none;"><g><path style="display: none;"/></g></g><g style="user-select: none; display: none;"><g><path style="display: none;"/></g></g><g style="user-select: none; display: none;"><g><path style="display: none;"/></g></g><g style="user-select: none; display: none;"><g><path style="display: none;"/></g></g><g style="user-select: none; display: none;"><g><path style="display: none;"/></g></g><g style="user-select: none; display: none;"><g><path style="display: none;"/></g></g><g style="user-select: none; display: none;"><g><path style="display: none;"/><path stroke-linecap="butt" stroke-linejoin="miter" fill-opacity="0" stroke-miterlimit="4" style="display: none;"/></g></g><g style="user-select: none; display: none;"><g><path style="display: none;"/><path stroke-linecap="butt" stroke-linejoin="miter" fill-opacity="0" stroke-miterlimit="4" style="display: none;"/></g></g><g style="user-select: none; display: none;"><g><path style="display: none;"/></g></g><g style="user-select: none; display: none;"><g><path style="display: none;"/></g></g><g style="user-select: none; display: none;"><g><path style="display: none;"/></g></g><g style="user-select: none; display: none;"><g><path style="display: none;"/></g></g><g style="user-select: none; display: none;"><g><path style="display: none;"/></g></g><g style="user-select: none; display: none;"><g><path style="display: none;"/></g></g><g style="user-select: none; display: none;"><g><path style="display: none;"/></g></g><g style="user-select: none; display: none;" transform="matrix(0.025471017697364182,0,0,0.025471017697364182,746.6636266681138,125)" opacity="1"><g opacity="1" transform="matrix(1,0,0,1,0,0)"><path style="display: none;" fill="rgb(30,49,100)" fill-opacity="1" d="M0 0 M0,-6.5 C3.58735,-6.5 6.5,-3.58735 6.5,0 C6.5,3.58735 3.58735,6.5 0,6.5 C-3.58735,6.5 -6.5,3.58735 -6.5,0 C-6.5,-3.58735 -3.58735,-6.5 0,-6.5z"/></g></g><g style="user-select: none; display: none;" transform="matrix(0.43998418901579983,0,0,0.43998418901579983,735.9969600014471,125)" opacity="1"><g opacity="1" transform="matrix(1,0,0,1,0,0)"><path style="display: none;" fill="rgb(30,49,100)" fill-opacity="1" d="M0 0 M0,-6.5 C3.58735,-6.5 6.5,-3.58735 6.5,0 C6.5,3.58735 3.58735,6.5 0,6.5 C-3.58735,6.5 -6.5,3.58735 -6.5,0 C-6.5,-3.58735 -3.58735,-6.5 0,-6.5z"/></g></g><g style="user-select: none; display: none;" transform="matrix(1.1326653809916574,0,0,1.1326653809916574,703.9969600014471,125)" opacity="1"><g opacity="1" transform="matrix(1,0,0,1,0,0)"><path style="display: none;" fill="rgb(30,49,100)" fill-opacity="1" d="M0 0 M0,-18.5 C10.210149999999999,-18.5 18.5,-10.210149999999999 18.5,0 C18.5,10.210149999999999 10.210149999999999,18.5 0,18.5 C-10.210149999999999,18.5 -18.5,10.210149999999999 -18.5,0 C-18.5,-10.210149999999999 -10.210149999999999,-18.5 0,-18.5z"/><path stroke-linecap="butt" stroke-linejoin="miter" fill-opacity="0" stroke-miterlimit="4" style="display: none;" stroke="rgb(30,49,100)" stroke-opacity="1" stroke-width="7" d="M0 0 M0,-18.5 C10.210149999999999,-18.5 18.5,-10.210149999999999 18.5,0 C18.5,10.210149999999999 10.210149999999999,18.5 0,18.5 C-10.210149999999999,18.5 -18.5,10.210149999999999 -18.5,0 C-18.5,-10.210149999999999 -10.210149999999999,-18.5 0,-18.5z"/></g></g><g style="user-select: none; display: none;" transform="matrix(0.9777848906931179,0,0,0.9777848906931179,682.6636266681138,125)" opacity="1"><g opacity="1" transform="matrix(1,0,0,1,0,0)"><path style="display: none;" fill="rgb(30,49,100)" fill-opacity="1" d="M0 0 M0,-6.5 C3.58735,-6.5 6.5,-3.58735 6.5,0 C6.5,3.58735 3.58735,6.5 0,6.5 C-3.58735,6.5 -6.5,3.58735 -6.5,0 C-6.5,-3.58735 -3.58735,-6.5 0,-6.5z"/></g></g><g style="user-select: none; display: none;" transform="matrix(0.9858851963801254,0,0,0.9858851963801254,661.3302933347804,125)" opacity="1"><g opacity="1" transform="matrix(1,0,0,1,0,0)"><path style="display: none;" fill="rgb(30,49,100)" fill-opacity="1" d="M0 0 M0,-6.5 C3.58735,-6.5 6.5,-3.58735 6.5,0 C6.5,3.58735 3.58735,6.5 0,6.5 C-3.58735,6.5 -6.5,3.58735 -6.5,0 C-6.5,-3.58735 -3.58735,-6.5 0,-6.5z"/></g></g><g style="user-select: none; display: none;" transform="matrix(1.0039538955053728,0,0,1.0039538955053728,634.6636266681138,125)" opacity="1"><g opacity="1" transform="matrix(1,0,0,1,0,0)"><path style="display: none;" fill="rgb(30,49,100)" fill-opacity="1" d="M0 0 M0,-6.5 C3.58735,-6.5 6.5,-3.58735 6.5,0 C6.5,3.58735 3.58735,6.5 0,6.5 C-3.58735,6.5 -6.5,3.58735 -6.5,0 C-6.5,-3.58735 -3.58735,-6.5 0,-6.5z"/></g></g><g style="user-select: none; display: none;" transform="matrix(1.001409409467026,0,0,1.001409409467026,618.6636266681137,125)" opacity="1"><g opacity="1" transform="matrix(1,0,0,1,0,0)"><path style="display: none;" fill="rgb(30,49,100)" fill-opacity="1" d="M0 0 M0,-6.5 C3.58735,-6.5 6.5,-3.58735 6.5,0 C6.5,3.58735 3.58735,6.5 0,6.5 C-3.58735,6.5 -6.5,3.58735 -6.5,0 C-6.5,-3.58735 -3.58735,-6.5 0,-6.5z"/></g></g><g style="user-select: none; display: none;" transform="matrix(0.9997414783539129,0,0,0.9997414783539129,581.3302933347804,125)" opacity="1"><g opacity="1" transform="matrix(1,0,0,1,0,0)"><path style="display: none;" fill="rgb(30,49,100)" fill-opacity="1" d="M0 0 M0,-18.5 C10.210149999999999,-18.5 18.5,-10.210149999999999 18.5,0 C18.5,10.210149999999999 10.210149999999999,18.5 0,18.5 C-10.210149999999999,18.5 -18.5,10.210149999999999 -18.5,0 C-18.5,-10.210149999999999 -10.210149999999999,-18.5 0,-18.5z"/><path stroke-linecap="butt" stroke-linejoin="miter" fill-opacity="0" stroke-miterlimit="4" style="display: none;" stroke="rgb(30,49,100)" stroke-opacity="1" stroke-width="7" d="M0 0 M0,-18.5 C10.210149999999999,-18.5 18.5,-10.210149999999999 18.5,0 C18.5,10.210149999999999 10.210149999999999,18.5 0,18.5 C-10.210149999999999,18.5 -18.5,10.210149999999999 -18.5,0 C-18.5,-10.210149999999999 -10.210149999999999,-18.5 0,-18.5z"/></g></g><g style="user-select: none; display: none;" transform="matrix(1,0,0,1,549.3302933347804,125)" opacity="1"><g opacity="1" transform="matrix(1,0,0,1,0,0)"><path style="display: none;" fill="rgb(30,49,100)" fill-opacity="1" d="M0 0 M0,-6.5 C3.58735,-6.5 6.5,-3.58735 6.5,0 C6.5,3.58735 3.58735,6.5 0,6.5 C-3.58735,6.5 -6.5,3.58735 -6.5,0 C-6.5,-3.58735 -3.58735,-6.5 0,-6.5z"/></g></g><g style="user-select: none; display: none;" transform="matrix(1,0,0,1,517.3302933347804,125)" opacity="1"><g opacity="1" transform="matrix(1,0,0,1,0,0)"><path style="display: none;" fill="rgb(30,49,100)" fill-opacity="1" d="M0 0 M0,-18.5 C10.210149999999999,-18.5 18.5,-10.210149999999999 18.5,0 C18.5,10.210149999999999 10.210149999999999,18.5 0,18.5 C-10.210149999999999,18.5 -18.5,10.210149999999999 -18.5,0 C-18.5,-10.210149999999999 -10.210149999999999,-18.5 0,-18.5z"/><path stroke-linecap="butt" stroke-linejoin="miter" fill-opacity="0" stroke-miterlimit="4" style="display: none;" stroke="rgb(30,49,100)" stroke-opacity="1" stroke-width="7" d="M0 0 M0,-18.5 C10.210149999999999,-18.5 18.5,-10.210149999999999 18.5,0 C18.5,10.210149999999999 10.210149999999999,18.5 0,18.5 C-10.210149999999999,18.5 -18.5,10.210149999999999 -18.5,0 C-18.5,-10.210149999999999 -10.210149999999999,-18.5 0,-18.5z"/></g></g><g style="user-select: none; display: none;" transform="matrix(1,0,0,1,490.6636266681138,125)" opacity="1"><g opacity="1" transform="matrix(1,0,0,1,0,0)"><path style="display: none;" fill="rgb(30,49,100)" fill-opacity="1" d="M0 0 M0,-6.5 C3.58735,-6.5 6.5,-3.58735 6.5,0 C6.5,3.58735 3.58735,6.5 0,6.5 C-3.58735,6.5 -6.5,3.58735 -6.5,0 C-6.5,-3.58735 -3.58735,-6.5 0,-6.5z"/></g></g><g transform="matrix(1,0,0,1,463.9969600014471,125)" opacity="1" style="user-select: none; display: none;"><g opacity="1" transform="matrix(1,0,0,1,0,0)"><path fill="rgb(30,49,100)" fill-opacity="1" d="M0 0 M0,-6.5 C3.58735,-6.5 6.5,-3.58735 6.5,0 C6.5,3.58735 3.58735,6.5 0,6.5 C-3.58735,6.5 -6.5,3.58735 -6.5,0 C-6.5,-3.58735 -3.58735,-6.5 0,-6.5z" style="display: none;"/></g></g><g transform="matrix(1,0,0,1,453.33029333478044,125)" opacity="1" style="user-select: none; display: none;"><g opacity="1" transform="matrix(1,0,0,1,0,0)"><path fill="rgb(30,49,100)" fill-opacity="1" d="M0 0 M0,-6.5 C3.58735,-6.5 6.5,-3.58735 6.5,0 C6.5,3.58735 3.58735,6.5 0,6.5 C-3.58735,6.5 -6.5,3.58735 -6.5,0 C-6.5,-3.58735 -3.58735,-6.5 0,-6.5z" style="display: none;"/></g></g><g transform="matrix(1,0,0,1,437.33029333478044,125)" opacity="1" style="user-select: none; display: none;"><g opacity="1" transform="matrix(1,0,0,1,0,0)"><path fill="rgb(30,49,100)" fill-opacity="1" d="M0 0 M0,-6.5 C3.58735,-6.5 6.5,-3.58735 6.5,0 C6.5,3.58735 3.58735,6.5 0,6.5 C-3.58735,6.5 -6.5,3.58735 -6.5,0 C-6.5,-3.58735 -3.58735,-6.5 0,-6.5z" style="display: none;"/></g></g><g transform="matrix(0.0018743819050624877,0,0,0.0018743819050624877,749.4308800010464,125)" opacity="1" style="user-select: none; display: block;"><g opacity="1" transform="matrix(1,0,0,1,0,0)"><path fill="rgb(30,49,100)" fill-opacity="1" d="M0 0 M0,-6.5 C3.58735,-6.5 6.5,-3.58735 6.5,0 C6.5,3.58735 3.58735,6.5 0,6.5 C-3.58735,6.5 -6.5,3.58735 -6.5,0 C-6.5,-3.58735 -3.58735,-6.5 0,-6.5z" style="display: block;"/></g></g><g transform="matrix(1.1624147998013896,0,0,1.1624147998013896,722.7642133343797,125)" opacity="1" style="user-select: none; display: block;"><g opacity="1" transform="matrix(1,0,0,1,0,0)"><path fill="rgb(30,49,100)" fill-opacity="1" d="M0 0 M0,-6.5 C3.58735,-6.5 6.5,-3.58735 6.5,0 C6.5,3.58735 3.58735,6.5 0,6.5 C-3.58735,6.5 -6.5,3.58735 -6.5,0 C-6.5,-3.58735 -3.58735,-6.5 0,-6.5z" style="display: block;"/></g></g><g transform="matrix(1.2053932919272055,0,0,1.2053932919272055,712.0975466677131,125)" opacity="1" style="user-select: none; display: block;"><g opacity="1" transform="matrix(1,0,0,1,0,0)"><path fill="rgb(30,49,100)" fill-opacity="1" d="M0 0 M0,-6.5 C3.58735,-6.5 6.5,-3.58735 6.5,0 C6.5,3.58735 3.58735,6.5 0,6.5 C-3.58735,6.5 -6.5,3.58735 -6.5,0 C-6.5,-3.58735 -3.58735,-6.5 0,-6.5z" style="display: block;"/></g></g><g transform="matrix(0.9858787501285763,0,0,0.9858787501285763,685.4308800010464,125)" opacity="1" style="user-select: none; display: block;"><g opacity="1" transform="matrix(1,0,0,1,0,0)"><path fill="rgb(30,49,100)" fill-opacity="1" d="M0 0 M0,-6.5 C3.58735,-6.5 6.5,-3.58735 6.5,0 C6.5,3.58735 3.58735,6.5 0,6.5 C-3.58735,6.5 -6.5,3.58735 -6.5,0 C-6.5,-3.58735 -3.58735,-6.5 0,-6.5z" style="display: block;"/></g></g><g transform="matrix(0.995855079182931,0,0,0.995855079182931,653.4308800010464,125)" opacity="1" style="user-select: none; display: block;"><g opacity="1" transform="matrix(1,0,0,1,0,0)"><path fill="rgb(30,49,100)" fill-opacity="1" d="M0 0 M0,-18.5 C10.210149999999999,-18.5 18.5,-10.210149999999999 18.5,0 C18.5,10.210149999999999 10.210149999999999,18.5 0,18.5 C-10.210149999999999,18.5 -18.5,10.210149999999999 -18.5,0 C-18.5,-10.210149999999999 -10.210149999999999,-18.5 0,-18.5z" style="display: block;"/><path stroke-linecap="butt" stroke-linejoin="miter" fill-opacity="0" stroke-miterlimit="4" style="display: block;" stroke="rgb(30,49,100)" stroke-opacity="1" stroke-width="7" d="M0 0 M0,-18.5 C10.210149999999999,-18.5 18.5,-10.210149999999999 18.5,0 C18.5,10.210149999999999 10.210149999999999,18.5 0,18.5 C-10.210149999999999,18.5 -18.5,10.210149999999999 -18.5,0 C-18.5,-10.210149999999999 -10.210149999999999,-18.5 0,-18.5z"/></g></g><g transform="matrix(1.0037619093651071,0,0,1.0037619093651071,632.0975466677131,125)" opacity="1" style="user-select: none; display: block;"><g opacity="1" transform="matrix(1,0,0,1,0,0)"><path fill="rgb(30,49,100)" fill-opacity="1" d="M0 0 M0,-18.5 C10.210149999999999,-18.5 18.5,-10.210149999999999 18.5,0 C18.5,10.210149999999999 10.210149999999999,18.5 0,18.5 C-10.210149999999999,18.5 -18.5,10.210149999999999 -18.5,0 C-18.5,-10.210149999999999 -10.210149999999999,-18.5 0,-18.5z" style="display: block;"/><path stroke-linecap="butt" stroke-linejoin="miter" fill-opacity="0" stroke-miterlimit="4" style="display: block;" stroke="rgb(30,49,100)" stroke-opacity="1" stroke-width="7" d="M0 0 M0,-18.5 C10.210149999999999,-18.5 18.5,-10.210149999999999 18.5,0 C18.5,10.210149999999999 10.210149999999999,18.5 0,18.5 C-10.210149999999999,18.5 -18.5,10.210149999999999 -18.5,0 C-18.5,-10.210149999999999 -10.210149999999999,-18.5 0,-18.5z"/></g></g><g transform="matrix(0.9994643807251692,0,0,0.9994643807251692,594.7642133343797,125)" opacity="1" style="user-select: none; display: block;"><g opacity="1" transform="matrix(1,0,0,1,0,0)"><path fill="rgb(30,49,100)" fill-opacity="1" d="M0 0 M0,-6.5 C3.58735,-6.5 6.5,-3.58735 6.5,0 C6.5,3.58735 3.58735,6.5 0,6.5 C-3.58735,6.5 -6.5,3.58735 -6.5,0 C-6.5,-3.58735 -3.58735,-6.5 0,-6.5z" style="display: block;"/></g></g><g transform="matrix(0.9998067862423546,0,0,0.9998067862423546,578.7642133343797,125)" opacity="1" style="user-select: none; display: block;"><g opacity="1" transform="matrix(1,0,0,1,0,0)"><path fill="rgb(30,49,100)" fill-opacity="1" d="M0 0 M0,-6.5 C3.58735,-6.5 6.5,-3.58735 6.5,0 C6.5,3.58735 3.58735,6.5 0,6.5 C-3.58735,6.5 -6.5,3.58735 -6.5,0 C-6.5,-3.58735 -3.58735,-6.5 0,-6.5z" style="display: block;"/></g></g><g transform="matrix(1,0,0,1,562.7642133343797,125)" opacity="1" style="user-select: none; display: block;"><g opacity="1" transform="matrix(1,0,0,1,0,0)"><path fill="rgb(30,49,100)" fill-opacity="1" d="M0 0 M0,-6.5 C3.58735,-6.5 6.5,-3.58735 6.5,0 C6.5,3.58735 3.58735,6.5 0,6.5 C-3.58735,6.5 -6.5,3.58735 -6.5,0 C-6.5,-3.58735 -3.58735,-6.5 0,-6.5z" style="display: block;"/></g></g><g transform="matrix(1,0,0,1,552.0975466677131,125)" opacity="1" style="user-select: none; display: block;"><g opacity="1" transform="matrix(1,0,0,1,0,0)"><path fill="rgb(30,49,100)" fill-opacity="1" d="M0 0 M0,-6.5 C3.58735,-6.5 6.5,-3.58735 6.5,0 C6.5,3.58735 3.58735,6.5 0,6.5 C-3.58735,6.5 -6.5,3.58735 -6.5,0 C-6.5,-3.58735 -3.58735,-6.5 0,-6.5z" style="display: block;"/></g></g><g transform="matrix(1,0,0,1,536.0975466677131,125)" opacity="1" style="user-select: none; display: block;"><g opacity="1" transform="matrix(1,0,0,1,0,0)"><path fill="rgb(30,49,100)" fill-opacity="1" d="M0 0 M0,-6.5 C3.58735,-6.5 6.5,-3.58735 6.5,0 C6.5,3.58735 3.58735,6.5 0,6.5 C-3.58735,6.5 -6.5,3.58735 -6.5,0 C-6.5,-3.58735 -3.58735,-6.5 0,-6.5z" style="display: block;"/></g></g><g transform="matrix(1,0,0,1,514.7642133343797,125)" opacity="1" style="user-select: none; display: block;"><g opacity="1" transform="matrix(1,0,0,1,0,0)"><path fill="rgb(30,49,100)" fill-opacity="1" d="M0 0 M0,-6.5 C3.58735,-6.5 6.5,-3.58735 6.5,0 C6.5,3.58735 3.58735,6.5 0,6.5 C-3.58735,6.5 -6.5,3.58735 -6.5,0 C-6.5,-3.58735 -3.58735,-6.5 0,-6.5z" style="display: block;"/></g></g><g transform="matrix(1,0,0,1,504.09754666771306,125)" opacity="1" style="user-select: none; display: block;"><g opacity="1" transform="matrix(1,0,0,1,0,0)"><path fill="rgb(30,49,100)" fill-opacity="1" d="M0 0 M0,-6.5 C3.58735,-6.5 6.5,-3.58735 6.5,0 C6.5,3.58735 3.58735,6.5 0,6.5 C-3.58735,6.5 -6.5,3.58735 -6.5,0 C-6.5,-3.58735 -3.58735,-6.5 0,-6.5z" style="display: block;"/></g></g><g transform="matrix(1,0,0,1,477.43088000104643,125)" opacity="1" style="user-select: none; display: block;"><g opacity="1" transform="matrix(1,0,0,1,0,0)"><path fill="rgb(30,49,100)" fill-opacity="1" d="M0 0 M0,-18.5 C10.210149999999999,-18.5 18.5,-10.210149999999999 18.5,0 C18.5,10.210149999999999 10.210149999999999,18.5 0,18.5 C-10.210149999999999,18.5 -18.5,10.210149999999999 -18.5,0 C-18.5,-10.210149999999999 -10.210149999999999,-18.5 0,-18.5z" style="display: block;"/><path stroke-linecap="butt" stroke-linejoin="miter" fill-opacity="0" stroke-miterlimit="4" style="display: block;" stroke="rgb(30,49,100)" stroke-opacity="1" stroke-width="7" d="M0 0 M0,-18.5 C10.210149999999999,-18.5 18.5,-10.210149999999999 18.5,0 C18.5,10.210149999999999 10.210149999999999,18.5 0,18.5 C-10.210149999999999,18.5 -18.5,10.210149999999999 -18.5,0 C-18.5,-10.210149999999999 -10.210149999999999,-18.5 0,-18.5z"/></g></g><g transform="matrix(1,0,0,1,445.43088000104643,125)" opacity="1" style="user-select: none; display: block;"><g opacity="1" transform="matrix(1,0,0,1,0,0)"><path fill="rgb(30,49,100)" fill-opacity="1" d="M0 0 M0,-6.5 C3.58735,-6.5 6.5,-3.58735 6.5,0 C6.5,3.58735 3.58735,6.5 0,6.5 C-3.58735,6.5 -6.5,3.58735 -6.5,0 C-6.5,-3.58735 -3.58735,-6.5 0,-6.5z" style="display: block;"/></g></g></g><g clip-path="url(https://spotify.me/en#cp_VSFQwPM9)" transform="matrix(1,0,0,1,210,414.562)" opacity="0.15"><g transform="matrix(1,0,0,1,456.09754666771306,125)" opacity="1" style="user-select: none; display: block;"><g opacity="1" transform="matrix(1,0,0,1,0,0)"><path fill="rgb(30,49,100)" fill-opacity="1" d="M0 0 M0,-6.5 C3.58735,-6.5 6.5,-3.58735 6.5,0 C6.5,3.58735 3.58735,6.5 0,6.5 C-3.58735,6.5 -6.5,3.58735 -6.5,0 C-6.5,-3.58735 -3.58735,-6.5 0,-6.5z" style="display: block;"/></g></g><g transform="matrix(1,0,0,1,413.4308800010464,125)" opacity="1" style="user-select: none; display: block;"><g opacity="1" transform="matrix(1,0,0,1,0,0)"><path fill="rgb(30,49,100)" fill-opacity="1" d="M0 0 M0,-18.5 C10.210149999999999,-18.5 18.5,-10.210149999999999 18.5,0 C18.5,10.210149999999999 10.210149999999999,18.5 0,18.5 C-10.210149999999999,18.5 -18.5,10.210149999999999 -18.5,0 C-18.5,-10.210149999999999 -10.210149999999999,-18.5 0,-18.5z" style="display: block;"/><path stroke-linecap="butt" stroke-linejoin="miter" fill-opacity="0" stroke-miterlimit="4" style="display: block;" stroke="rgb(30,49,100)" stroke-opacity="1" stroke-width="7" d="M0 0 M0,-18.5 C10.210149999999999,-18.5 18.5,-10.210149999999999 18.5,0 C18.5,10.210149999999999 10.210149999999999,18.5 0,18.5 C-10.210149999999999,18.5 -18.5,10.210149999999999 -18.5,0 C-18.5,-10.210149999999999 -10.210149999999999,-18.5 0,-18.5z"/></g></g><g transform="matrix(1,0,0,1,392.09754666771306,125)" opacity="1" style="user-select: none; display: block;"><g opacity="1" transform="matrix(1,0,0,1,0,0)"><path fill="rgb(30,49,100)" fill-opacity="1" d="M0 0 M0,-6.5 C3.58735,-6.5 6.5,-3.58735 6.5,0 C6.5,3.58735 3.58735,6.5 0,6.5 C-3.58735,6.5 -6.5,3.58735 -6.5,0 C-6.5,-3.58735 -3.58735,-6.5 0,-6.5z" style="display: block;"/></g></g><g transform="matrix(1,0,0,1,381.43088000104643,125)" opacity="1" style="user-select: none; display: block;"><g opacity="1" transform="matrix(1,0,0,1,0,0)"><path fill="rgb(30,49,100)" fill-opacity="1" d="M0 0 M0,-6.5 C3.58735,-6.5 6.5,-3.58735 6.5,0 C6.5,3.58735 3.58735,6.5 0,6.5 C-3.58735,6.5 -6.5,3.58735 -6.5,0 C-6.5,-3.58735 -3.58735,-6.5 0,-6.5z" style="display: block;"/></g></g><g transform="matrix(1,0,0,1,354.76421333437975,125)" opacity="1" style="user-select: none; display: block;"><g opacity="1" transform="matrix(1,0,0,1,0,0)"><path fill="rgb(30,49,100)" fill-opacity="1" d="M0 0 M0,-6.5 C3.58735,-6.5 6.5,-3.58735 6.5,0 C6.5,3.58735 3.58735,6.5 0,6.5 C-3.58735,6.5 -6.5,3.58735 -6.5,0 C-6.5,-3.58735 -3.58735,-6.5 0,-6.5z" style="display: block;"/></g></g><g transform="matrix(1,0,0,1,344.09754666771306,125)" opacity="1" style="user-select: none; display: block;"><g opacity="1" transform="matrix(1,0,0,1,0,0)"><path fill="rgb(30,49,100)" fill-opacity="1" d="M0 0 M0,-6.5 C3.58735,-6.5 6.5,-3.58735 6.5,0 C6.5,3.58735 3.58735,6.5 0,6.5 C-3.58735,6.5 -6.5,3.58735 -6.5,0 C-6.5,-3.58735 -3.58735,-6.5 0,-6.5z" style="display: block;"/></g></g><g transform="matrix(1,0,0,1,317.4308800010464,125)" opacity="1" style="user-select: none; display: block;"><g opacity="1" transform="matrix(1,0,0,1,0,0)"><path fill="rgb(30,49,100)" fill-opacity="1" d="M0 0 M0,-6.5 C3.58735,-6.5 6.5,-3.58735 6.5,0 C6.5,3.58735 3.58735,6.5 0,6.5 C-3.58735,6.5 -6.5,3.58735 -6.5,0 C-6.5,-3.58735 -3.58735,-6.5 0,-6.5z" style="display: block;"/></g></g><g transform="matrix(1,0,0,1,290.76421333437975,125)" opacity="1" style="user-select: none; display: block;"><g opacity="1" transform="matrix(1,0,0,1,0,0)"><path fill="rgb(30,49,100)" fill-opacity="1" d="M0 0 M0,-6.5 C3.58735,-6.5 6.5,-3.58735 6.5,0 C6.5,3.58735 3.58735,6.5 0,6.5 C-3.58735,6.5 -6.5,3.58735 -6.5,0 C-6.5,-3.58735 -3.58735,-6.5 0,-6.5z" style="display: block;"/></g></g><g transform="matrix(1,0,0,1,280.0975466677131,125)" opacity="1" style="user-select: none; display: block;"><g opacity="1" transform="matrix(1,0,0,1,0,0)"><path fill="rgb(30,49,100)" fill-opacity="1" d="M0 0 M0,-6.5 C3.58735,-6.5 6.5,-3.58735 6.5,0 C6.5,3.58735 3.58735,6.5 0,6.5 C-3.58735,6.5 -6.5,3.58735 -6.5,0 C-6.5,-3.58735 -3.58735,-6.5 0,-6.5z" style="display: block;"/></g></g><g transform="matrix(1,0,0,1,253.43088000104643,125)" opacity="1" style="user-select: none; display: block;"><g opacity="1" transform="matrix(1,0,0,1,0,0)"><path fill="rgb(30,49,100)" fill-opacity="1" d="M0 0 M0,-6.5 C3.58735,-6.5 6.5,-3.58735 6.5,0 C6.5,3.58735 3.58735,6.5 0,6.5 C-3.58735,6.5 -6.5,3.58735 -6.5,0 C-6.5,-3.58735 -3.58735,-6.5 0,-6.5z" style="display: block;"/></g></g><g transform="matrix(1,0,0,1,242.7642133343798,125)" opacity="1" style="user-select: none; display: block;"><g opacity="1" transform="matrix(1,0,0,1,0,0)"><path fill="rgb(30,49,100)" fill-opacity="1" d="M0 0 M0,-6.5 C3.58735,-6.5 6.5,-3.58735 6.5,0 C6.5,3.58735 3.58735,6.5 0,6.5 C-3.58735,6.5 -6.5,3.58735 -6.5,0 C-6.5,-3.58735 -3.58735,-6.5 0,-6.5z" style="display: block;"/></g></g><g transform="matrix(1,0,0,1,226.76421333437975,125)" opacity="1" style="user-select: none; display: block;"><g opacity="1" transform="matrix(1,0,0,1,0,0)"><path fill="rgb(30,49,100)" fill-opacity="1" d="M0 0 M0,-6.5 C3.58735,-6.5 6.5,-3.58735 6.5,0 C6.5,3.58735 3.58735,6.5 0,6.5 C-3.58735,6.5 -6.5,3.58735 -6.5,0 C-6.5,-3.58735 -3.58735,-6.5 0,-6.5z" style="display: block;"/></g></g><g transform="matrix(1,0,0,1,194.76421333437975,125)" opacity="1" style="user-select: none; display: block;"><g opacity="1" transform="matrix(1,0,0,1,0,0)"><path fill="rgb(30,49,100)" fill-opacity="1" d="M0 0 M0,-18.5 C10.210149999999999,-18.5 18.5,-10.210149999999999 18.5,0 C18.5,10.210149999999999 10.210149999999999,18.5 0,18.5 C-10.210149999999999,18.5 -18.5,10.210149999999999 -18.5,0 C-18.5,-10.210149999999999 -10.210149999999999,-18.5 0,-18.5z" style="display: block;"/><path stroke-linecap="butt" stroke-linejoin="miter" fill-opacity="0" stroke-miterlimit="4" style="display: block;" stroke="rgb(30,49,100)" stroke-opacity="1" stroke-width="7" d="M0 0 M0,-18.5 C10.210149999999999,-18.5 18.5,-10.210149999999999 18.5,0 C18.5,10.210149999999999 10.210149999999999,18.5 0,18.5 C-10.210149999999999,18.5 -18.5,10.210149999999999 -18.5,0 C-18.5,-10.210149999999999 -10.210149999999999,-18.5 0,-18.5z"/></g></g><g transform="matrix(1,0,0,1,141.43088000104638,125)" opacity="1" style="user-select: none; display: block;"><g opacity="1" transform="matrix(1,0,0,1,0,0)"><path fill="rgb(30,49,100)" fill-opacity="1" d="M0 0 M0,-18.5 C10.210149999999999,-18.5 18.5,-10.210149999999999 18.5,0 C18.5,10.210149999999999 10.210149999999999,18.5 0,18.5 C-10.210149999999999,18.5 -18.5,10.210149999999999 -18.5,0 C-18.5,-10.210149999999999 -10.210149999999999,-18.5 0,-18.5z" style="display: block;"/><path stroke-linecap="butt" stroke-linejoin="miter" fill-opacity="0" stroke-miterlimit="4" style="display: block;" stroke="rgb(30,49,100)" stroke-opacity="1" stroke-width="7" d="M0 0 M0,-18.5 C10.210149999999999,-18.5 18.5,-10.210149999999999 18.5,0 C18.5,10.210149999999999 10.210149999999999,18.5 0,18.5 C-10.210149999999999,18.5 -18.5,10.210149999999999 -18.5,0 C-18.5,-10.210149999999999 -10.210149999999999,-18.5 0,-18.5z"/></g></g><g transform="matrix(1,0,0,1,120.097546667713,125)" opacity="1" style="user-select: none; display: block;"><g opacity="1" transform="matrix(1,0,0,1,0,0)"><path fill="rgb(30,49,100)" fill-opacity="1" d="M0 0 M0,-6.5 C3.58735,-6.5 6.5,-3.58735 6.5,0 C6.5,3.58735 3.58735,6.5 0,6.5 C-3.58735,6.5 -6.5,3.58735 -6.5,0 C-6.5,-3.58735 -3.58735,-6.5 0,-6.5z" style="display: block;"/></g></g><g transform="matrix(1,0,0,1,93.43088000104638,125)" opacity="1" style="user-select: none; display: block;"><g opacity="1" transform="matrix(1,0,0,1,0,0)"><path fill="rgb(30,49,100)" fill-opacity="1" d="M0 0 M0,-6.5 C3.58735,-6.5 6.5,-3.58735 6.5,0 C6.5,3.58735 3.58735,6.5 0,6.5 C-3.58735,6.5 -6.5,3.58735 -6.5,0 C-6.5,-3.58735 -3.58735,-6.5 0,-6.5z" style="display: block;"/></g></g><g transform="matrix(1,0,0,1,66.76421333437975,125)" opacity="1" style="user-select: none; display: block;"><g opacity="1" transform="matrix(1,0,0,1,0,0)"><path fill="rgb(30,49,100)" fill-opacity="1" d="M0 0 M0,-6.5 C3.58735,-6.5 6.5,-3.58735 6.5,0 C6.5,3.58735 3.58735,6.5 0,6.5 C-3.58735,6.5 -6.5,3.58735 -6.5,0 C-6.5,-3.58735 -3.58735,-6.5 0,-6.5z" style="display: block;"/></g></g><g transform="matrix(-0.0022164736594446196,0,0,-0.0022164736594446196,34.76421333437975,125)" opacity="1" style="user-select: none; display: block;"><g opacity="1" transform="matrix(1,0,0,1,0,0)"><path fill="rgb(30,49,100)" fill-opacity="1" d="M0 0 M0,-6.5 C3.58735,-6.5 6.5,-3.58735 6.5,0 C6.5,3.58735 3.58735,6.5 0,6.5 C-3.58735,6.5 -6.5,3.58735 -6.5,0 C-6.5,-3.58735 -3.58735,-6.5 0,-6.5z" style="display: block;"/></g></g><g transform="matrix(-0.01688106663007459,0,0,-0.01688106663007459,13.430880001046376,125)" opacity="1" style="user-select: none; display: block;"><g opacity="1" transform="matrix(1,0,0,1,0,0)"><path fill="rgb(30,49,100)" fill-opacity="1" d="M0 0 M0,-6.5 C3.58735,-6.5 6.5,-3.58735 6.5,0 C6.5,3.58735 3.58735,6.5 0,6.5 C-3.58735,6.5 -6.5,3.58735 -6.5,0 C-6.5,-3.58735 -3.58735,-6.5 0,-6.5z" style="display: block;"/></g></g><g transform="matrix(-0.0055186387161762175,0,0,-0.0055186387161762175,2.764213334379747,125)" opacity="1" style="user-select: none; display: block;"><g opacity="1" transform="matrix(1,0,0,1,0,0)"><path fill="rgb(30,49,100)" fill-opacity="1" d="M0 0 M0,-6.5 C3.58735,-6.5 6.5,-3.58735 6.5,0 C6.5,3.58735 3.58735,6.5 0,6.5 C-3.58735,6.5 -6.5,3.58735 -6.5,0 C-6.5,-3.58735 -3.58735,-6.5 0,-6.5z" style="display: block;"/></g></g><g transform="matrix(0.0030588932348677472,0,0,0.0030588932348677472,-18.56911999895351,125)" opacity="1" style="user-select: none; display: block;"><g opacity="1" transform="matrix(1,0,0,1,0,0)"><path fill="rgb(30,49,100)" fill-opacity="1" d="M0 0 M0,-6.5 C3.58735,-6.5 6.5,-3.58735 6.5,0 C6.5,3.58735 3.58735,6.5 0,6.5 C-3.58735,6.5 -6.5,3.58735 -6.5,0 C-6.5,-3.58735 -3.58735,-6.5 0,-6.5z" style="display: block;"/></g></g><g transform="matrix(0.0004335572296634521,0,0,0.0004335572296634521,-39.90245333228688,125)" opacity="1" style="user-select: none;"><g opacity="1" transform="matrix(1,0,0,1,0,0)"><path fill="rgb(30,49,100)" fill-opacity="1" d="M0 0 M0,-6.5 C3.58735,-6.5 6.5,-3.58735 6.5,0 C6.5,3.58735 3.58735,6.5 0,6.5 C-3.58735,6.5 -6.5,3.58735 -6.5,0 C-6.5,-3.58735 -3.58735,-6.5 0,-6.5z"/></g></g><g transform="matrix(-0.000311155776355104,0,0,-0.000311155776355104,-50,125)" opacity="1" style="user-select: none;"><g opacity="1" transform="matrix(1,0,0,1,0,0)"><path fill="rgb(30,49,100)" fill-opacity="1" d="M0 0 M0,-6.5 C3.58735,-6.5 6.5,-3.58735 6.5,0 C6.5,3.58735 3.58735,6.5 0,6.5 C-3.58735,6.5 -6.5,3.58735 -6.5,0 C-6.5,-3.58735 -3.58735,-6.5 0,-6.5z"/></g></g><g transform="matrix(-0.00002345860797982167,0,0,-0.00002345860797982167,-50,125)" opacity="1" style="user-select: none;"><g opacity="1" transform="matrix(1,0,0,1,0,0)"><path fill="rgb(30,49,100)" fill-opacity="1" d="M0 0 M0,-18.5 C10.210149999999999,-18.5 18.5,-10.210149999999999 18.5,0 C18.5,10.210149999999999 10.210149999999999,18.5 0,18.5 C-10.210149999999999,18.5 -18.5,10.210149999999999 -18.5,0 C-18.5,-10.210149999999999 -10.210149999999999,-18.5 0,-18.5z"/><path stroke-linecap="butt" stroke-linejoin="miter" fill-opacity="0" stroke-miterlimit="4" stroke="rgb(30,49,100)" stroke-opacity="1" stroke-width="7" d="M0 0 M0,-18.5 C10.210149999999999,-18.5 18.5,-10.210149999999999 18.5,0 C18.5,10.210149999999999 10.210149999999999,18.5 0,18.5 C-10.210149999999999,18.5 -18.5,10.210149999999999 -18.5,0 C-18.5,-10.210149999999999 -10.210149999999999,-18.5 0,-18.5z"/></g></g><g transform="matrix(0.00004826388896477947,0,0,0.00004826388896477947,-50,125)" opacity="1" style="user-select: none;"><g opacity="1" transform="matrix(1,0,0,1,0,0)"><path fill="rgb(30,49,100)" fill-opacity="1" d="M0 0 M0,-6.5 C3.58735,-6.5 6.5,-3.58735 6.5,0 C6.5,3.58735 3.58735,6.5 0,6.5 C-3.58735,6.5 -6.5,3.58735 -6.5,0 C-6.5,-3.58735 -3.58735,-6.5 0,-6.5z"/></g></g><g transform="matrix(0,0,0,0,-50,125)" opacity="1" style="user-select: none;"><g opacity="1" transform="matrix(1,0,0,1,0,0)"><path fill="rgb(30,49,100)" fill-opacity="1" d="M0 0 M0,-6.5 C3.58735,-6.5 6.5,-3.58735 6.5,0 C6.5,3.58735 3.58735,6.5 0,6.5 C-3.58735,6.5 -6.5,3.58735 -6.5,0 C-6.5,-3.58735 -3.58735,-6.5 0,-6.5z"/></g></g><g transform="matrix(0,0,0,0,-50,125)" opacity="1" style="user-select: none;"><g opacity="1" transform="matrix(1,0,0,1,0,0)"><path fill="rgb(30,49,100)" fill-opacity="1" d="M0 0 M0,-6.5 C3.58735,-6.5 6.5,-3.58735 6.5,0 C6.5,3.58735 3.58735,6.5 0,6.5 C-3.58735,6.5 -6.5,3.58735 -6.5,0 C-6.5,-3.58735 -3.58735,-6.5 0,-6.5z"/></g></g><g transform="matrix(0,0,0,0,-50,125)" opacity="1" style="user-select: none;"><g opacity="1" transform="matrix(1,0,0,1,0,0)"><path fill="rgb(30,49,100)" fill-opacity="1" d="M0 0 M0,-6.5 C3.58735,-6.5 6.5,-3.58735 6.5,0 C6.5,3.58735 3.58735,6.5 0,6.5 C-3.58735,6.5 -6.5,3.58735 -6.5,0 C-6.5,-3.58735 -3.58735,-6.5 0,-6.5z"/></g></g><g transform="matrix(0,0,0,0,-50,125)" opacity="1" style="user-select: none;"><g opacity="1" transform="matrix(1,0,0,1,0,0)"><path fill="rgb(30,49,100)" fill-opacity="1" d="M0 0 M0,-18.5 C10.210149999999999,-18.5 18.5,-10.210149999999999 18.5,0 C18.5,10.210149999999999 10.210149999999999,18.5 0,18.5 C-10.210149999999999,18.5 -18.5,10.210149999999999 -18.5,0 C-18.5,-10.210149999999999 -10.210149999999999,-18.5 0,-18.5z"/><path stroke-linecap="butt" stroke-linejoin="miter" fill-opacity="0" stroke-miterlimit="4" stroke="rgb(30,49,100)" stroke-opacity="1" stroke-width="7" d="M0 0 M0,-18.5 C10.210149999999999,-18.5 18.5,-10.210149999999999 18.5,0 C18.5,10.210149999999999 10.210149999999999,18.5 0,18.5 C-10.210149999999999,18.5 -18.5,10.210149999999999 -18.5,0 C-18.5,-10.210149999999999 -10.210149999999999,-18.5 0,-18.5z"/></g></g><g transform="matrix(0,0,0,0,-50,125)" opacity="1" style="user-select: none;"><g opacity="1" transform="matrix(1,0,0,1,0,0)"><path fill="rgb(30,49,100)" fill-opacity="1" d="M0 0 M0,-6.5 C3.58735,-6.5 6.5,-3.58735 6.5,0 C6.5,3.58735 3.58735,6.5 0,6.5 C-3.58735,6.5 -6.5,3.58735 -6.5,0 C-6.5,-3.58735 -3.58735,-6.5 0,-6.5z"/></g></g><g transform="matrix(0,0,0,0,-50,125)" opacity="1" style="user-select: none;"><g opacity="1" transform="matrix(1,0,0,1,0,0)"><path fill="rgb(30,49,100)" fill-opacity="1" d="M0 0 M0,-18.5 C10.210149999999999,-18.5 18.5,-10.210149999999999 18.5,0 C18.5,10.210149999999999 10.210149999999999,18.5 0,18.5 C-10.210149999999999,18.5 -18.5,10.210149999999999 -18.5,0 C-18.5,-10.210149999999999 -10.210149999999999,-18.5 0,-18.5z"/><path stroke-linecap="butt" stroke-linejoin="miter" fill-opacity="0" stroke-miterlimit="4" stroke="rgb(30,49,100)" stroke-opacity="1" stroke-width="7" d="M0 0 M0,-18.5 C10.210149999999999,-18.5 18.5,-10.210149999999999 18.5,0 C18.5,10.210149999999999 10.210149999999999,18.5 0,18.5 C-10.210149999999999,18.5 -18.5,10.210149999999999 -18.5,0 C-18.5,-10.210149999999999 -10.210149999999999,-18.5 0,-18.5z"/></g></g><g transform="matrix(0,0,0,0,-50,125)" opacity="1" style="user-select: none;"><g opacity="1" transform="matrix(1,0,0,1,0,0)"><path fill="rgb(30,49,100)" fill-opacity="1" d="M0 0 M0,-6.5 C3.58735,-6.5 6.5,-3.58735 6.5,0 C6.5,3.58735 3.58735,6.5 0,6.5 C-3.58735,6.5 -6.5,3.58735 -6.5,0 C-6.5,-3.58735 -3.58735,-6.5 0,-6.5z"/></g></g><g transform="matrix(0,0,0,0,-50,125)" opacity="1" style="user-select: none;"><g opacity="1" transform="matrix(1,0,0,1,0,0)"><path fill="rgb(30,49,100)" fill-opacity="1" d="M0 0 M0,-6.5 C3.58735,-6.5 6.5,-3.58735 6.5,0 C6.5,3.58735 3.58735,6.5 0,6.5 C-3.58735,6.5 -6.5,3.58735 -6.5,0 C-6.5,-3.58735 -3.58735,-6.5 0,-6.5z"/></g></g><g transform="matrix(0,0,0,0,-50,125)" opacity="1" style="user-select: none;"><g opacity="1" transform="matrix(1,0,0,1,0,0)"><path fill="rgb(30,49,100)" fill-opacity="1" d="M0 0 M0,-6.5 C3.58735,-6.5 6.5,-3.58735 6.5,0 C6.5,3.58735 3.58735,6.5 0,6.5 C-3.58735,6.5 -6.5,3.58735 -6.5,0 C-6.5,-3.58735 -3.58735,-6.5 0,-6.5z"/></g></g><g transform="matrix(0,0,0,0,-50,125)" opacity="1" style="user-select: none;"><g opacity="1" transform="matrix(1,0,0,1,0,0)"><path fill="rgb(30,49,100)" fill-opacity="1" d="M0 0 M0,-6.5 C3.58735,-6.5 6.5,-3.58735 6.5,0 C6.5,3.58735 3.58735,6.5 0,6.5 C-3.58735,6.5 -6.5,3.58735 -6.5,0 C-6.5,-3.58735 -3.58735,-6.5 0,-6.5z"/></g></g><g transform="matrix(0,0,0,0,-50,125)" opacity="1" style="user-select: none;"><g opacity="1" transform="matrix(1,0,0,1,0,0)"><path fill="rgb(30,49,100)" fill-opacity="1" d="M0 0 M0,-6.5 C3.58735,-6.5 6.5,-3.58735 6.5,0 C6.5,3.58735 3.58735,6.5 0,6.5 C-3.58735,6.5 -6.5,3.58735 -6.5,0 C-6.5,-3.58735 -3.58735,-6.5 0,-6.5z"/></g></g><g transform="matrix(0,0,0,0,-50,125)" opacity="1" style="user-select: none;"><g opacity="1" transform="matrix(1,0,0,1,0,0)"><path fill="rgb(30,49,100)" fill-opacity="1" d="M0 0 M0,-6.5 C3.58735,-6.5 6.5,-3.58735 6.5,0 C6.5,3.58735 3.58735,6.5 0,6.5 C-3.58735,6.5 -6.5,3.58735 -6.5,0 C-6.5,-3.58735 -3.58735,-6.5 0,-6.5z"/></g></g><g transform="matrix(0,0,0,0,-50,125)" opacity="1" style="user-select: none;"><g opacity="1" transform="matrix(1,0,0,1,0,0)"><path fill="rgb(30,49,100)" fill-opacity="1" d="M0 0 M0,-6.5 C3.58735,-6.5 6.5,-3.58735 6.5,0 C6.5,3.58735 3.58735,6.5 0,6.5 C-3.58735,6.5 -6.5,3.58735 -6.5,0 C-6.5,-3.58735 -3.58735,-6.5 0,-6.5z"/></g></g><g transform="matrix(0,0,0,0,-50,125)" opacity="1" style="user-select: none;"><g opacity="1" transform="matrix(1,0,0,1,0,0)"><path fill="rgb(30,49,100)" fill-opacity="1" d="M0 0 M0,-6.5 C3.58735,-6.5 6.5,-3.58735 6.5,0 C6.5,3.58735 3.58735,6.5 0,6.5 C-3.58735,6.5 -6.5,3.58735 -6.5,0 C-6.5,-3.58735 -3.58735,-6.5 0,-6.5z"/></g></g><g transform="matrix(0,0,0,0,-50,125)" opacity="1" style="user-select: none;"><g opacity="1" transform="matrix(1,0,0,1,0,0)"><path fill="rgb(30,49,100)" fill-opacity="1" d="M0 0 M0,-18.5 C10.210149999999999,-18.5 18.5,-10.210149999999999 18.5,0 C18.5,10.210149999999999 10.210149999999999,18.5 0,18.5 C-10.210149999999999,18.5 -18.5,10.210149999999999 -18.5,0 C-18.5,-10.210149999999999 -10.210149999999999,-18.5 0,-18.5z"/><path stroke-linecap="butt" stroke-linejoin="miter" fill-opacity="0" stroke-miterlimit="4" stroke="rgb(30,49,100)" stroke-opacity="1" stroke-width="7" d="M0 0 M0,-18.5 C10.210149999999999,-18.5 18.5,-10.210149999999999 18.5,0 C18.5,10.210149999999999 10.210149999999999,18.5 0,18.5 C-10.210149999999999,18.5 -18.5,10.210149999999999 -18.5,0 C-18.5,-10.210149999999999 -10.210149999999999,-18.5 0,-18.5z"/></g></g><g transform="matrix(0,0,0,0,-50,125)" opacity="1" style="user-select: none;"><g opacity="1" transform="matrix(1,0,0,1,0,0)"><path fill="rgb(30,49,100)" fill-opacity="1" d="M0 0 M0,-18.5 C10.210149999999999,-18.5 18.5,-10.210149999999999 18.5,0 C18.5,10.210149999999999 10.210149999999999,18.5 0,18.5 C-10.210149999999999,18.5 -18.5,10.210149999999999 -18.5,0 C-18.5,-10.210149999999999 -10.210149999999999,-18.5 0,-18.5z"/><path stroke-linecap="butt" stroke-linejoin="miter" fill-opacity="0" stroke-miterlimit="4" stroke="rgb(30,49,100)" stroke-opacity="1" stroke-width="7" d="M0 0 M0,-18.5 C10.210149999999999,-18.5 18.5,-10.210149999999999 18.5,0 C18.5,10.210149999999999 10.210149999999999,18.5 0,18.5 C-10.210149999999999,18.5 -18.5,10.210149999999999 -18.5,0 C-18.5,-10.210149999999999 -10.210149999999999,-18.5 0,-18.5z"/></g></g><g transform="matrix(0,0,0,0,-50,125)" opacity="1" style="user-select: none;"><g opacity="1" transform="matrix(1,0,0,1,0,0)"><path fill="rgb(30,49,100)" fill-opacity="1" d="M0 0 M0,-6.5 C3.58735,-6.5 6.5,-3.58735 6.5,0 C6.5,3.58735 3.58735,6.5 0,6.5 C-3.58735,6.5 -6.5,3.58735 -6.5,0 C-6.5,-3.58735 -3.58735,-6.5 0,-6.5z"/></g></g><g transform="matrix(0,0,0,0,-50,125)" opacity="1" style="user-select: none;"><g opacity="1" transform="matrix(1,0,0,1,0,0)"><path fill="rgb(30,49,100)" fill-opacity="1" d="M0 0 M0,-6.5 C3.58735,-6.5 6.5,-3.58735 6.5,0 C6.5,3.58735 3.58735,6.5 0,6.5 C-3.58735,6.5 -6.5,3.58735 -6.5,0 C-6.5,-3.58735 -3.58735,-6.5 0,-6.5z"/></g></g><g transform="matrix(0,0,0,0,-50,125)" opacity="1" style="user-select: none;"><g opacity="1" transform="matrix(1,0,0,1,0,0)"><path fill="rgb(30,49,100)" fill-opacity="1" d="M0 0 M0,-6.5 C3.58735,-6.5 6.5,-3.58735 6.5,0 C6.5,3.58735 3.58735,6.5 0,6.5 C-3.58735,6.5 -6.5,3.58735 -6.5,0 C-6.5,-3.58735 -3.58735,-6.5 0,-6.5z"/></g></g><g transform="matrix(0,0,0,0,-50,125)" opacity="1" style="user-select: none;"><g opacity="1" transform="matrix(1,0,0,1,0,0)"><path fill="rgb(30,49,100)" fill-opacity="1" d="M0 0 M0,-6.5 C3.58735,-6.5 6.5,-3.58735 6.5,0 C6.5,3.58735 3.58735,6.5 0,6.5 C-3.58735,6.5 -6.5,3.58735 -6.5,0 C-6.5,-3.58735 -3.58735,-6.5 0,-6.5z"/></g></g><g transform="matrix(0,0,0,0,-50,125)" opacity="1" style="user-select: none;"><g opacity="1" transform="matrix(1,0,0,1,0,0)"><path fill="rgb(30,49,100)" fill-opacity="1" d="M0 0 M0,-6.5 C3.58735,-6.5 6.5,-3.58735 6.5,0 C6.5,3.58735 3.58735,6.5 0,6.5 C-3.58735,6.5 -6.5,3.58735 -6.5,0 C-6.5,-3.58735 -3.58735,-6.5 0,-6.5z"/></g></g><g transform="matrix(0,0,0,0,-50,125)" opacity="1" style="user-select: none;"><g opacity="1" transform="matrix(1,0,0,1,0,0)"><path fill="rgb(30,49,100)" fill-opacity="1" d="M0 0 M0,-6.5 C3.58735,-6.5 6.5,-3.58735 6.5,0 C6.5,3.58735 3.58735,6.5 0,6.5 C-3.58735,6.5 -6.5,3.58735 -6.5,0 C-6.5,-3.58735 -3.58735,-6.5 0,-6.5z"/></g></g><g transform="matrix(0,0,0,0,-50,125)" opacity="1" style="user-select: none;"><g opacity="1" transform="matrix(1,0,0,1,0,0)"><path fill="rgb(30,49,100)" fill-opacity="1" d="M0 0 M0,-6.5 C3.58735,-6.5 6.5,-3.58735 6.5,0 C6.5,3.58735 3.58735,6.5 0,6.5 C-3.58735,6.5 -6.5,3.58735 -6.5,0 C-6.5,-3.58735 -3.58735,-6.5 0,-6.5z"/></g></g><g transform="matrix(0,0,0,0,-50,125)" opacity="1" style="user-select: none;"><g opacity="1" transform="matrix(1,0,0,1,0,0)"><path fill="rgb(30,49,100)" fill-opacity="1" d="M0 0 M0,-18.5 C10.210149999999999,-18.5 18.5,-10.210149999999999 18.5,0 C18.5,10.210149999999999 10.210149999999999,18.5 0,18.5 C-10.210149999999999,18.5 -18.5,10.210149999999999 -18.5,0 C-18.5,-10.210149999999999 -10.210149999999999,-18.5 0,-18.5z"/><path stroke-linecap="butt" stroke-linejoin="miter" fill-opacity="0" stroke-miterlimit="4" stroke="rgb(30,49,100)" stroke-opacity="1" stroke-width="7" d="M0 0 M0,-18.5 C10.210149999999999,-18.5 18.5,-10.210149999999999 18.5,0 C18.5,10.210149999999999 10.210149999999999,18.5 0,18.5 C-10.210149999999999,18.5 -18.5,10.210149999999999 -18.5,0 C-18.5,-10.210149999999999 -10.210149999999999,-18.5 0,-18.5z"/></g></g><g transform="matrix(0,0,0,0,-50,125)" opacity="1" style="user-select: none;"><g opacity="1" transform="matrix(1,0,0,1,0,0)"><path fill="rgb(30,49,100)" fill-opacity="1" d="M0 0 M0,-6.5 C3.58735,-6.5 6.5,-3.58735 6.5,0 C6.5,3.58735 3.58735,6.5 0,6.5 C-3.58735,6.5 -6.5,3.58735 -6.5,0 C-6.5,-3.58735 -3.58735,-6.5 0,-6.5z"/></g></g></g></g></g>

<g xmlns="http://www.w3.org/2000/svg" clip-path="url(https://spotify.me/en#animationMask_8FD1MFTiM8)"><g clip-path="url(https://spotify.me/en#cp_HV9KJhab)" transform="matrix(0.72,0,0,0.72,325,-319.8)" opacity="1"><g clip-path="url(https://spotify.me/en#cp_xYcV3ecE)" style="display: block;" transform="matrix(1,0,0,1,210,414.562)" opacity="0.15"><g style="user-select: none; display: none;"><g><path style="display: none;"/></g></g><g style="user-select: none; display: none;"><g><path style="display: none;"/><path stroke-linecap="butt" stroke-linejoin="miter" fill-opacity="0" stroke-miterlimit="4" style="display: none;"/></g></g><g style="user-select: none; display: none;"><g><path style="display: none;"/></g></g><g style="user-select: none; display: none;"><g><path style="display: none;"/></g></g><g style="user-select: none; display: none;"><g><path style="display: none;"/></g></g><g style="user-select: none; display: none;"><g><path style="display: none;"/></g></g><g style="user-select: none; display: none;"><g><path style="display: none;"/></g></g><g style="user-select: none; display: none;"><g><path style="display: none;"/></g></g><g style="user-select: none; display: none;"><g><path style="display: none;"/></g></g><g style="user-select: none; display: none;"><g><path style="display: none;"/></g></g><g style="user-select: none; display: none;"><g><path style="display: none;"/></g></g><g style="user-select: none; display: none;"><g><path style="display: none;"/></g></g><g style="user-select: none; display: none;"><g><path style="display: none;"/><path stroke-linecap="butt" stroke-linejoin="miter" fill-opacity="0" stroke-miterlimit="4" style="display: none;"/></g></g><g style="user-select: none; display: none;"><g><path style="display: none;"/><path stroke-linecap="butt" stroke-linejoin="miter" fill-opacity="0" stroke-miterlimit="4" style="display: none;"/></g></g><g style="user-select: none; display: none;"><g><path style="display: none;"/></g></g><g style="user-select: none; display: none;"><g><path style="display: none;"/></g></g><g style="user-select: none; display: none;"><g><path style="display: none;"/></g></g><g style="user-select: none; display: none;"><g><path style="display: none;"/></g></g><g style="user-select: none; display: none;"><g><path style="display: none;"/></g></g><g style="user-select: none; display: none;"><g><path style="display: none;"/></g></g><g style="user-select: none; display: none;"><g><path style="display: none;"/></g></g><g style="user-select: none; display: none;" transform="matrix(0.025471017697364182,0,0,0.025471017697364182,746.6636266681138,125)" opacity="1"><g opacity="1" transform="matrix(1,0,0,1,0,0)"><path style="display: none;" fill="rgb(30,49,100)" fill-opacity="1" d="M0 0 M0,-6.5 C3.58735,-6.5 6.5,-3.58735 6.5,0 C6.5,3.58735 3.58735,6.5 0,6.5 C-3.58735,6.5 -6.5,3.58735 -6.5,0 C-6.5,-3.58735 -3.58735,-6.5 0,-6.5z"/></g></g><g style="user-select: none; display: none;" transform="matrix(0.43998418901579983,0,0,0.43998418901579983,735.9969600014471,125)" opacity="1"><g opacity="1" transform="matrix(1,0,0,1,0,0)"><path style="display: none;" fill="rgb(30,49,100)" fill-opacity="1" d="M0 0 M0,-6.5 C3.58735,-6.5 6.5,-3.58735 6.5,0 C6.5,3.58735 3.58735,6.5 0,6.5 C-3.58735,6.5 -6.5,3.58735 -6.5,0 C-6.5,-3.58735 -3.58735,-6.5 0,-6.5z"/></g></g><g style="user-select: none; display: none;" transform="matrix(1.1326653809916574,0,0,1.1326653809916574,703.9969600014471,125)" opacity="1"><g opacity="1" transform="matrix(1,0,0,1,0,0)"><path style="display: none;" fill="rgb(30,49,100)" fill-opacity="1" d="M0 0 M0,-18.5 C10.210149999999999,-18.5 18.5,-10.210149999999999 18.5,0 C18.5,10.210149999999999 10.210149999999999,18.5 0,18.5 C-10.210149999999999,18.5 -18.5,10.210149999999999 -18.5,0 C-18.5,-10.210149999999999 -10.210149999999999,-18.5 0,-18.5z"/><path stroke-linecap="butt" stroke-linejoin="miter" fill-opacity="0" stroke-miterlimit="4" style="display: none;" stroke="rgb(30,49,100)" stroke-opacity="1" stroke-width="7" d="M0 0 M0,-18.5 C10.210149999999999,-18.5 18.5,-10.210149999999999 18.5,0 C18.5,10.210149999999999 10.210149999999999,18.5 0,18.5 C-10.210149999999999,18.5 -18.5,10.210149999999999 -18.5,0 C-18.5,-10.210149999999999 -10.210149999999999,-18.5 0,-18.5z"/></g></g><g style="user-select: none; display: none;" transform="matrix(0.9777848906931179,0,0,0.9777848906931179,682.6636266681138,125)" opacity="1"><g opacity="1" transform="matrix(1,0,0,1,0,0)"><path style="display: none;" fill="rgb(30,49,100)" fill-opacity="1" d="M0 0 M0,-6.5 C3.58735,-6.5 6.5,-3.58735 6.5,0 C6.5,3.58735 3.58735,6.5 0,6.5 C-3.58735,6.5 -6.5,3.58735 -6.5,0 C-6.5,-3.58735 -3.58735,-6.5 0,-6.5z"/></g></g><g style="user-select: none; display: none;" transform="matrix(0.9858851963801254,0,0,0.9858851963801254,661.3302933347804,125)" opacity="1"><g opacity="1" transform="matrix(1,0,0,1,0,0)"><path style="display: none;" fill="rgb(30,49,100)" fill-opacity="1" d="M0 0 M0,-6.5 C3.58735,-6.5 6.5,-3.58735 6.5,0 C6.5,3.58735 3.58735,6.5 0,6.5 C-3.58735,6.5 -6.5,3.58735 -6.5,0 C-6.5,-3.58735 -3.58735,-6.5 0,-6.5z"/></g></g><g style="user-select: none; display: none;" transform="matrix(1.0039538955053728,0,0,1.0039538955053728,634.6636266681138,125)" opacity="1"><g opacity="1" transform="matrix(1,0,0,1,0,0)"><path style="display: none;" fill="rgb(30,49,100)" fill-opacity="1" d="M0 0 M0,-6.5 C3.58735,-6.5 6.5,-3.58735 6.5,0 C6.5,3.58735 3.58735,6.5 0,6.5 C-3.58735,6.5 -6.5,3.58735 -6.5,0 C-6.5,-3.58735 -3.58735,-6.5 0,-6.5z"/></g></g><g style="user-select: none; display: none;" transform="matrix(1.001409409467026,0,0,1.001409409467026,618.6636266681137,125)" opacity="1"><g opacity="1" transform="matrix(1,0,0,1,0,0)"><path style="display: none;" fill="rgb(30,49,100)" fill-opacity="1" d="M0 0 M0,-6.5 C3.58735,-6.5 6.5,-3.58735 6.5,0 C6.5,3.58735 3.58735,6.5 0,6.5 C-3.58735,6.5 -6.5,3.58735 -6.5,0 C-6.5,-3.58735 -3.58735,-6.5 0,-6.5z"/></g></g><g style="user-select: none; display: none;" transform="matrix(0.9997414783539129,0,0,0.9997414783539129,581.3302933347804,125)" opacity="1"><g opacity="1" transform="matrix(1,0,0,1,0,0)"><path style="display: none;" fill="rgb(30,49,100)" fill-opacity="1" d="M0 0 M0,-18.5 C10.210149999999999,-18.5 18.5,-10.210149999999999 18.5,0 C18.5,10.210149999999999 10.210149999999999,18.5 0,18.5 C-10.210149999999999,18.5 -18.5,10.210149999999999 -18.5,0 C-18.5,-10.210149999999999 -10.210149999999999,-18.5 0,-18.5z"/><path stroke-linecap="butt" stroke-linejoin="miter" fill-opacity="0" stroke-miterlimit="4" style="display: none;" stroke="rgb(30,49,100)" stroke-opacity="1" stroke-width="7" d="M0 0 M0,-18.5 C10.210149999999999,-18.5 18.5,-10.210149999999999 18.5,0 C18.5,10.210149999999999 10.210149999999999,18.5 0,18.5 C-10.210149999999999,18.5 -18.5,10.210149999999999 -18.5,0 C-18.5,-10.210149999999999 -10.210149999999999,-18.5 0,-18.5z"/></g></g><g style="user-select: none; display: none;" transform="matrix(1,0,0,1,549.3302933347804,125)" opacity="1"><g opacity="1" transform="matrix(1,0,0,1,0,0)"><path style="display: none;" fill="rgb(30,49,100)" fill-opacity="1" d="M0 0 M0,-6.5 C3.58735,-6.5 6.5,-3.58735 6.5,0 C6.5,3.58735 3.58735,6.5 0,6.5 C-3.58735,6.5 -6.5,3.58735 -6.5,0 C-6.5,-3.58735 -3.58735,-6.5 0,-6.5z"/></g></g><g style="user-select: none; display: none;" transform="matrix(1,0,0,1,517.3302933347804,125)" opacity="1"><g opacity="1" transform="matrix(1,0,0,1,0,0)"><path style="display: none;" fill="rgb(30,49,100)" fill-opacity="1" d="M0 0 M0,-18.5 C10.210149999999999,-18.5 18.5,-10.210149999999999 18.5,0 C18.5,10.210149999999999 10.210149999999999,18.5 0,18.5 C-10.210149999999999,18.5 -18.5,10.210149999999999 -18.5,0 C-18.5,-10.210149999999999 -10.210149999999999,-18.5 0,-18.5z"/><path stroke-linecap="butt" stroke-linejoin="miter" fill-opacity="0" stroke-miterlimit="4" style="display: none;" stroke="rgb(30,49,100)" stroke-opacity="1" stroke-width="7" d="M0 0 M0,-18.5 C10.210149999999999,-18.5 18.5,-10.210149999999999 18.5,0 C18.5,10.210149999999999 10.210149999999999,18.5 0,18.5 C-10.210149999999999,18.5 -18.5,10.210149999999999 -18.5,0 C-18.5,-10.210149999999999 -10.210149999999999,-18.5 0,-18.5z"/></g></g><g style="user-select: none; display: none;" transform="matrix(1,0,0,1,490.6636266681138,125)" opacity="1"><g opacity="1" transform="matrix(1,0,0,1,0,0)"><path style="display: none;" fill="rgb(30,49,100)" fill-opacity="1" d="M0 0 M0,-6.5 C3.58735,-6.5 6.5,-3.58735 6.5,0 C6.5,3.58735 3.58735,6.5 0,6.5 C-3.58735,6.5 -6.5,3.58735 -6.5,0 C-6.5,-3.58735 -3.58735,-6.5 0,-6.5z"/></g></g><g transform="matrix(1,0,0,1,463.9969600014471,125)" opacity="1" style="user-select: none; display: none;"><g opacity="1" transform="matrix(1,0,0,1,0,0)"><path fill="rgb(30,49,100)" fill-opacity="1" d="M0 0 M0,-6.5 C3.58735,-6.5 6.5,-3.58735 6.5,0 C6.5,3.58735 3.58735,6.5 0,6.5 C-3.58735,6.5 -6.5,3.58735 -6.5,0 C-6.5,-3.58735 -3.58735,-6.5 0,-6.5z" style="display: none;"/></g></g><g transform="matrix(1,0,0,1,453.33029333478044,125)" opacity="1" style="user-select: none; display: none;"><g opacity="1" transform="matrix(1,0,0,1,0,0)"><path fill="rgb(30,49,100)" fill-opacity="1" d="M0 0 M0,-6.5 C3.58735,-6.5 6.5,-3.58735 6.5,0 C6.5,3.58735 3.58735,6.5 0,6.5 C-3.58735,6.5 -6.5,3.58735 -6.5,0 C-6.5,-3.58735 -3.58735,-6.5 0,-6.5z" style="display: none;"/></g></g><g transform="matrix(1,0,0,1,437.33029333478044,125)" opacity="1" style="user-select: none; display: none;"><g opacity="1" transform="matrix(1,0,0,1,0,0)"><path fill="rgb(30,49,100)" fill-opacity="1" d="M0 0 M0,-6.5 C3.58735,-6.5 6.5,-3.58735 6.5,0 C6.5,3.58735 3.58735,6.5 0,6.5 C-3.58735,6.5 -6.5,3.58735 -6.5,0 C-6.5,-3.58735 -3.58735,-6.5 0,-6.5z" style="display: none;"/></g></g><g transform="matrix(0.0018743819050624877,0,0,0.0018743819050624877,749.4308800010464,125)" opacity="1" style="user-select: none; display: block;"><g opacity="1" transform="matrix(1,0,0,1,0,0)"><path fill="rgb(30,49,100)" fill-opacity="1" d="M0 0 M0,-6.5 C3.58735,-6.5 6.5,-3.58735 6.5,0 C6.5,3.58735 3.58735,6.5 0,6.5 C-3.58735,6.5 -6.5,3.58735 -6.5,0 C-6.5,-3.58735 -3.58735,-6.5 0,-6.5z" style="display: block;"/></g></g><g transform="matrix(1.1624147998013896,0,0,1.1624147998013896,722.7642133343797,125)" opacity="1" style="user-select: none; display: block;"><g opacity="1" transform="matrix(1,0,0,1,0,0)"><path fill="rgb(30,49,100)" fill-opacity="1" d="M0 0 M0,-6.5 C3.58735,-6.5 6.5,-3.58735 6.5,0 C6.5,3.58735 3.58735,6.5 0,6.5 C-3.58735,6.5 -6.5,3.58735 -6.5,0 C-6.5,-3.58735 -3.58735,-6.5 0,-6.5z" style="display: block;"/></g></g><g transform="matrix(1.2053932919272055,0,0,1.2053932919272055,712.0975466677131,125)" opacity="1" style="user-select: none; display: block;"><g opacity="1" transform="matrix(1,0,0,1,0,0)"><path fill="rgb(30,49,100)" fill-opacity="1" d="M0 0 M0,-6.5 C3.58735,-6.5 6.5,-3.58735 6.5,0 C6.5,3.58735 3.58735,6.5 0,6.5 C-3.58735,6.5 -6.5,3.58735 -6.5,0 C-6.5,-3.58735 -3.58735,-6.5 0,-6.5z" style="display: block;"/></g></g><g transform="matrix(0.9858787501285763,0,0,0.9858787501285763,685.4308800010464,125)" opacity="1" style="user-select: none; display: block;"><g opacity="1" transform="matrix(1,0,0,1,0,0)"><path fill="rgb(30,49,100)" fill-opacity="1" d="M0 0 M0,-6.5 C3.58735,-6.5 6.5,-3.58735 6.5,0 C6.5,3.58735 3.58735,6.5 0,6.5 C-3.58735,6.5 -6.5,3.58735 -6.5,0 C-6.5,-3.58735 -3.58735,-6.5 0,-6.5z" style="display: block;"/></g></g><g transform="matrix(0.995855079182931,0,0,0.995855079182931,653.4308800010464,125)" opacity="1" style="user-select: none; display: block;"><g opacity="1" transform="matrix(1,0,0,1,0,0)"><path fill="rgb(30,49,100)" fill-opacity="1" d="M0 0 M0,-18.5 C10.210149999999999,-18.5 18.5,-10.210149999999999 18.5,0 C18.5,10.210149999999999 10.210149999999999,18.5 0,18.5 C-10.210149999999999,18.5 -18.5,10.210149999999999 -18.5,0 C-18.5,-10.210149999999999 -10.210149999999999,-18.5 0,-18.5z" style="display: block;"/><path stroke-linecap="butt" stroke-linejoin="miter" fill-opacity="0" stroke-miterlimit="4" style="display: block;" stroke="rgb(30,49,100)" stroke-opacity="1" stroke-width="7" d="M0 0 M0,-18.5 C10.210149999999999,-18.5 18.5,-10.210149999999999 18.5,0 C18.5,10.210149999999999 10.210149999999999,18.5 0,18.5 C-10.210149999999999,18.5 -18.5,10.210149999999999 -18.5,0 C-18.5,-10.210149999999999 -10.210149999999999,-18.5 0,-18.5z"/></g></g><g transform="matrix(1.0037619093651071,0,0,1.0037619093651071,632.0975466677131,125)" opacity="1" style="user-select: none; display: block;"><g opacity="1" transform="matrix(1,0,0,1,0,0)"><path fill="rgb(30,49,100)" fill-opacity="1" d="M0 0 M0,-18.5 C10.210149999999999,-18.5 18.5,-10.210149999999999 18.5,0 C18.5,10.210149999999999 10.210149999999999,18.5 0,18.5 C-10.210149999999999,18.5 -18.5,10.210149999999999 -18.5,0 C-18.5,-10.210149999999999 -10.210149999999999,-18.5 0,-18.5z" style="display: block;"/><path stroke-linecap="butt" stroke-linejoin="miter" fill-opacity="0" stroke-miterlimit="4" style="display: block;" stroke="rgb(30,49,100)" stroke-opacity="1" stroke-width="7" d="M0 0 M0,-18.5 C10.210149999999999,-18.5 18.5,-10.210149999999999 18.5,0 C18.5,10.210149999999999 10.210149999999999,18.5 0,18.5 C-10.210149999999999,18.5 -18.5,10.210149999999999 -18.5,0 C-18.5,-10.210149999999999 -10.210149999999999,-18.5 0,-18.5z"/></g></g><g transform="matrix(0.9994643807251692,0,0,0.9994643807251692,594.7642133343797,125)" opacity="1" style="user-select: none; display: block;"><g opacity="1" transform="matrix(1,0,0,1,0,0)"><path fill="rgb(30,49,100)" fill-opacity="1" d="M0 0 M0,-6.5 C3.58735,-6.5 6.5,-3.58735 6.5,0 C6.5,3.58735 3.58735,6.5 0,6.5 C-3.58735,6.5 -6.5,3.58735 -6.5,0 C-6.5,-3.58735 -3.58735,-6.5 0,-6.5z" style="display: block;"/></g></g><g transform="matrix(0.9998067862423546,0,0,0.9998067862423546,578.7642133343797,125)" opacity="1" style="user-select: none; display: block;"><g opacity="1" transform="matrix(1,0,0,1,0,0)"><path fill="rgb(30,49,100)" fill-opacity="1" d="M0 0 M0,-6.5 C3.58735,-6.5 6.5,-3.58735 6.5,0 C6.5,3.58735 3.58735,6.5 0,6.5 C-3.58735,6.5 -6.5,3.58735 -6.5,0 C-6.5,-3.58735 -3.58735,-6.5 0,-6.5z" style="display: block;"/></g></g><g transform="matrix(1,0,0,1,562.7642133343797,125)" opacity="1" style="user-select: none; display: block;"><g opacity="1" transform="matrix(1,0,0,1,0,0)"><path fill="rgb(30,49,100)" fill-opacity="1" d="M0 0 M0,-6.5 C3.58735,-6.5 6.5,-3.58735 6.5,0 C6.5,3.58735 3.58735,6.5 0,6.5 C-3.58735,6.5 -6.5,3.58735 -6.5,0 C-6.5,-3.58735 -3.58735,-6.5 0,-6.5z" style="display: block;"/></g></g><g transform="matrix(1,0,0,1,552.0975466677131,125)" opacity="1" style="user-select: none; display: block;"><g opacity="1" transform="matrix(1,0,0,1,0,0)"><path fill="rgb(30,49,100)" fill-opacity="1" d="M0 0 M0,-6.5 C3.58735,-6.5 6.5,-3.58735 6.5,0 C6.5,3.58735 3.58735,6.5 0,6.5 C-3.58735,6.5 -6.5,3.58735 -6.5,0 C-6.5,-3.58735 -3.58735,-6.5 0,-6.5z" style="display: block;"/></g></g><g transform="matrix(1,0,0,1,536.0975466677131,125)" opacity="1" style="user-select: none; display: block;"><g opacity="1" transform="matrix(1,0,0,1,0,0)"><path fill="rgb(30,49,100)" fill-opacity="1" d="M0 0 M0,-6.5 C3.58735,-6.5 6.5,-3.58735 6.5,0 C6.5,3.58735 3.58735,6.5 0,6.5 C-3.58735,6.5 -6.5,3.58735 -6.5,0 C-6.5,-3.58735 -3.58735,-6.5 0,-6.5z" style="display: block;"/></g></g><g transform="matrix(1,0,0,1,514.7642133343797,125)" opacity="1" style="user-select: none; display: block;"><g opacity="1" transform="matrix(1,0,0,1,0,0)"><path fill="rgb(30,49,100)" fill-opacity="1" d="M0 0 M0,-6.5 C3.58735,-6.5 6.5,-3.58735 6.5,0 C6.5,3.58735 3.58735,6.5 0,6.5 C-3.58735,6.5 -6.5,3.58735 -6.5,0 C-6.5,-3.58735 -3.58735,-6.5 0,-6.5z" style="display: block;"/></g></g><g transform="matrix(1,0,0,1,504.09754666771306,125)" opacity="1" style="user-select: none; display: block;"><g opacity="1" transform="matrix(1,0,0,1,0,0)"><path fill="rgb(30,49,100)" fill-opacity="1" d="M0 0 M0,-6.5 C3.58735,-6.5 6.5,-3.58735 6.5,0 C6.5,3.58735 3.58735,6.5 0,6.5 C-3.58735,6.5 -6.5,3.58735 -6.5,0 C-6.5,-3.58735 -3.58735,-6.5 0,-6.5z" style="display: block;"/></g></g><g transform="matrix(1,0,0,1,477.43088000104643,125)" opacity="1" style="user-select: none; display: block;"><g opacity="1" transform="matrix(1,0,0,1,0,0)"><path fill="rgb(30,49,100)" fill-opacity="1" d="M0 0 M0,-18.5 C10.210149999999999,-18.5 18.5,-10.210149999999999 18.5,0 C18.5,10.210149999999999 10.210149999999999,18.5 0,18.5 C-10.210149999999999,18.5 -18.5,10.210149999999999 -18.5,0 C-18.5,-10.210149999999999 -10.210149999999999,-18.5 0,-18.5z" style="display: block;"/><path stroke-linecap="butt" stroke-linejoin="miter" fill-opacity="0" stroke-miterlimit="4" style="display: block;" stroke="rgb(30,49,100)" stroke-opacity="1" stroke-width="7" d="M0 0 M0,-18.5 C10.210149999999999,-18.5 18.5,-10.210149999999999 18.5,0 C18.5,10.210149999999999 10.210149999999999,18.5 0,18.5 C-10.210149999999999,18.5 -18.5,10.210149999999999 -18.5,0 C-18.5,-10.210149999999999 -10.210149999999999,-18.5 0,-18.5z"/></g></g><g transform="matrix(1,0,0,1,445.43088000104643,125)" opacity="1" style="user-select: none; display: block;"><g opacity="1" transform="matrix(1,0,0,1,0,0)"><path fill="rgb(30,49,100)" fill-opacity="1" d="M0 0 M0,-6.5 C3.58735,-6.5 6.5,-3.58735 6.5,0 C6.5,3.58735 3.58735,6.5 0,6.5 C-3.58735,6.5 -6.5,3.58735 -6.5,0 C-6.5,-3.58735 -3.58735,-6.5 0,-6.5z" style="display: block;"/></g></g></g><g clip-path="url(https://spotify.me/en#cp_VSFQwPM9)" transform="matrix(1,0,0,1,210,414.562)" opacity="0.15"><g transform="matrix(1,0,0,1,456.09754666771306,125)" opacity="1" style="user-select: none; display: block;"><g opacity="1" transform="matrix(1,0,0,1,0,0)"><path fill="rgb(30,49,100)" fill-opacity="1" d="M0 0 M0,-6.5 C3.58735,-6.5 6.5,-3.58735 6.5,0 C6.5,3.58735 3.58735,6.5 0,6.5 C-3.58735,6.5 -6.5,3.58735 -6.5,0 C-6.5,-3.58735 -3.58735,-6.5 0,-6.5z" style="display: block;"/></g></g><g transform="matrix(1,0,0,1,413.4308800010464,125)" opacity="1" style="user-select: none; display: block;"><g opacity="1" transform="matrix(1,0,0,1,0,0)"><path fill="rgb(30,49,100)" fill-opacity="1" d="M0 0 M0,-18.5 C10.210149999999999,-18.5 18.5,-10.210149999999999 18.5,0 C18.5,10.210149999999999 10.210149999999999,18.5 0,18.5 C-10.210149999999999,18.5 -18.5,10.210149999999999 -18.5,0 C-18.5,-10.210149999999999 -10.210149999999999,-18.5 0,-18.5z" style="display: block;"/><path stroke-linecap="butt" stroke-linejoin="miter" fill-opacity="0" stroke-miterlimit="4" style="display: block;" stroke="rgb(30,49,100)" stroke-opacity="1" stroke-width="7" d="M0 0 M0,-18.5 C10.210149999999999,-18.5 18.5,-10.210149999999999 18.5,0 C18.5,10.210149999999999 10.210149999999999,18.5 0,18.5 C-10.210149999999999,18.5 -18.5,10.210149999999999 -18.5,0 C-18.5,-10.210149999999999 -10.210149999999999,-18.5 0,-18.5z"/></g></g><g transform="matrix(1,0,0,1,392.09754666771306,125)" opacity="1" style="user-select: none; display: block;"><g opacity="1" transform="matrix(1,0,0,1,0,0)"><path fill="rgb(30,49,100)" fill-opacity="1" d="M0 0 M0,-6.5 C3.58735,-6.5 6.5,-3.58735 6.5,0 C6.5,3.58735 3.58735,6.5 0,6.5 C-3.58735,6.5 -6.5,3.58735 -6.5,0 C-6.5,-3.58735 -3.58735,-6.5 0,-6.5z" style="display: block;"/></g></g><g transform="matrix(1,0,0,1,381.43088000104643,125)" opacity="1" style="user-select: none; display: block;"><g opacity="1" transform="matrix(1,0,0,1,0,0)"><path fill="rgb(30,49,100)" fill-opacity="1" d="M0 0 M0,-6.5 C3.58735,-6.5 6.5,-3.58735 6.5,0 C6.5,3.58735 3.58735,6.5 0,6.5 C-3.58735,6.5 -6.5,3.58735 -6.5,0 C-6.5,-3.58735 -3.58735,-6.5 0,-6.5z" style="display: block;"/></g></g><g transform="matrix(1,0,0,1,354.76421333437975,125)" opacity="1" style="user-select: none; display: block;"><g opacity="1" transform="matrix(1,0,0,1,0,0)"><path fill="rgb(30,49,100)" fill-opacity="1" d="M0 0 M0,-6.5 C3.58735,-6.5 6.5,-3.58735 6.5,0 C6.5,3.58735 3.58735,6.5 0,6.5 C-3.58735,6.5 -6.5,3.58735 -6.5,0 C-6.5,-3.58735 -3.58735,-6.5 0,-6.5z" style="display: block;"/></g></g><g transform="matrix(1,0,0,1,344.09754666771306,125)" opacity="1" style="user-select: none; display: block;"><g opacity="1" transform="matrix(1,0,0,1,0,0)"><path fill="rgb(30,49,100)" fill-opacity="1" d="M0 0 M0,-6.5 C3.58735,-6.5 6.5,-3.58735 6.5,0 C6.5,3.58735 3.58735,6.5 0,6.5 C-3.58735,6.5 -6.5,3.58735 -6.5,0 C-6.5,-3.58735 -3.58735,-6.5 0,-6.5z" style="display: block;"/></g></g><g transform="matrix(1,0,0,1,317.4308800010464,125)" opacity="1" style="user-select: none; display: block;"><g opacity="1" transform="matrix(1,0,0,1,0,0)"><path fill="rgb(30,49,100)" fill-opacity="1" d="M0 0 M0,-6.5 C3.58735,-6.5 6.5,-3.58735 6.5,0 C6.5,3.58735 3.58735,6.5 0,6.5 C-3.58735,6.5 -6.5,3.58735 -6.5,0 C-6.5,-3.58735 -3.58735,-6.5 0,-6.5z" style="display: block;"/></g></g><g transform="matrix(1,0,0,1,290.76421333437975,125)" opacity="1" style="user-select: none; display: block;"><g opacity="1" transform="matrix(1,0,0,1,0,0)"><path fill="rgb(30,49,100)" fill-opacity="1" d="M0 0 M0,-6.5 C3.58735,-6.5 6.5,-3.58735 6.5,0 C6.5,3.58735 3.58735,6.5 0,6.5 C-3.58735,6.5 -6.5,3.58735 -6.5,0 C-6.5,-3.58735 -3.58735,-6.5 0,-6.5z" style="display: block;"/></g></g><g transform="matrix(1,0,0,1,280.0975466677131,125)" opacity="1" style="user-select: none; display: block;"><g opacity="1" transform="matrix(1,0,0,1,0,0)"><path fill="rgb(30,49,100)" fill-opacity="1" d="M0 0 M0,-6.5 C3.58735,-6.5 6.5,-3.58735 6.5,0 C6.5,3.58735 3.58735,6.5 0,6.5 C-3.58735,6.5 -6.5,3.58735 -6.5,0 C-6.5,-3.58735 -3.58735,-6.5 0,-6.5z" style="display: block;"/></g></g><g transform="matrix(1,0,0,1,253.43088000104643,125)" opacity="1" style="user-select: none; display: block;"><g opacity="1" transform="matrix(1,0,0,1,0,0)"><path fill="rgb(30,49,100)" fill-opacity="1" d="M0 0 M0,-6.5 C3.58735,-6.5 6.5,-3.58735 6.5,0 C6.5,3.58735 3.58735,6.5 0,6.5 C-3.58735,6.5 -6.5,3.58735 -6.5,0 C-6.5,-3.58735 -3.58735,-6.5 0,-6.5z" style="display: block;"/></g></g><g transform="matrix(1,0,0,1,242.7642133343798,125)" opacity="1" style="user-select: none; display: block;"><g opacity="1" transform="matrix(1,0,0,1,0,0)"><path fill="rgb(30,49,100)" fill-opacity="1" d="M0 0 M0,-6.5 C3.58735,-6.5 6.5,-3.58735 6.5,0 C6.5,3.58735 3.58735,6.5 0,6.5 C-3.58735,6.5 -6.5,3.58735 -6.5,0 C-6.5,-3.58735 -3.58735,-6.5 0,-6.5z" style="display: block;"/></g></g><g transform="matrix(1,0,0,1,226.76421333437975,125)" opacity="1" style="user-select: none; display: block;"><g opacity="1" transform="matrix(1,0,0,1,0,0)"><path fill="rgb(30,49,100)" fill-opacity="1" d="M0 0 M0,-6.5 C3.58735,-6.5 6.5,-3.58735 6.5,0 C6.5,3.58735 3.58735,6.5 0,6.5 C-3.58735,6.5 -6.5,3.58735 -6.5,0 C-6.5,-3.58735 -3.58735,-6.5 0,-6.5z" style="display: block;"/></g></g><g transform="matrix(1,0,0,1,194.76421333437975,125)" opacity="1" style="user-select: none; display: block;"><g opacity="1" transform="matrix(1,0,0,1,0,0)"><path fill="rgb(30,49,100)" fill-opacity="1" d="M0 0 M0,-18.5 C10.210149999999999,-18.5 18.5,-10.210149999999999 18.5,0 C18.5,10.210149999999999 10.210149999999999,18.5 0,18.5 C-10.210149999999999,18.5 -18.5,10.210149999999999 -18.5,0 C-18.5,-10.210149999999999 -10.210149999999999,-18.5 0,-18.5z" style="display: block;"/><path stroke-linecap="butt" stroke-linejoin="miter" fill-opacity="0" stroke-miterlimit="4" style="display: block;" stroke="rgb(30,49,100)" stroke-opacity="1" stroke-width="7" d="M0 0 M0,-18.5 C10.210149999999999,-18.5 18.5,-10.210149999999999 18.5,0 C18.5,10.210149999999999 10.210149999999999,18.5 0,18.5 C-10.210149999999999,18.5 -18.5,10.210149999999999 -18.5,0 C-18.5,-10.210149999999999 -10.210149999999999,-18.5 0,-18.5z"/></g></g><g transform="matrix(1,0,0,1,141.43088000104638,125)" opacity="1" style="user-select: none; display: block;"><g opacity="1" transform="matrix(1,0,0,1,0,0)"><path fill="rgb(30,49,100)" fill-opacity="1" d="M0 0 M0,-18.5 C10.210149999999999,-18.5 18.5,-10.210149999999999 18.5,0 C18.5,10.210149999999999 10.210149999999999,18.5 0,18.5 C-10.210149999999999,18.5 -18.5,10.210149999999999 -18.5,0 C-18.5,-10.210149999999999 -10.210149999999999,-18.5 0,-18.5z" style="display: block;"/><path stroke-linecap="butt" stroke-linejoin="miter" fill-opacity="0" stroke-miterlimit="4" style="display: block;" stroke="rgb(30,49,100)" stroke-opacity="1" stroke-width="7" d="M0 0 M0,-18.5 C10.210149999999999,-18.5 18.5,-10.210149999999999 18.5,0 C18.5,10.210149999999999 10.210149999999999,18.5 0,18.5 C-10.210149999999999,18.5 -18.5,10.210149999999999 -18.5,0 C-18.5,-10.210149999999999 -10.210149999999999,-18.5 0,-18.5z"/></g></g><g transform="matrix(1,0,0,1,120.097546667713,125)" opacity="1" style="user-select: none; display: block;"><g opacity="1" transform="matrix(1,0,0,1,0,0)"><path fill="rgb(30,49,100)" fill-opacity="1" d="M0 0 M0,-6.5 C3.58735,-6.5 6.5,-3.58735 6.5,0 C6.5,3.58735 3.58735,6.5 0,6.5 C-3.58735,6.5 -6.5,3.58735 -6.5,0 C-6.5,-3.58735 -3.58735,-6.5 0,-6.5z" style="display: block;"/></g></g><g transform="matrix(1,0,0,1,93.43088000104638,125)" opacity="1" style="user-select: none; display: block;"><g opacity="1" transform="matrix(1,0,0,1,0,0)"><path fill="rgb(30,49,100)" fill-opacity="1" d="M0 0 M0,-6.5 C3.58735,-6.5 6.5,-3.58735 6.5,0 C6.5,3.58735 3.58735,6.5 0,6.5 C-3.58735,6.5 -6.5,3.58735 -6.5,0 C-6.5,-3.58735 -3.58735,-6.5 0,-6.5z" style="display: block;"/></g></g><g transform="matrix(1,0,0,1,66.76421333437975,125)" opacity="1" style="user-select: none; display: block;"><g opacity="1" transform="matrix(1,0,0,1,0,0)"><path fill="rgb(30,49,100)" fill-opacity="1" d="M0 0 M0,-6.5 C3.58735,-6.5 6.5,-3.58735 6.5,0 C6.5,3.58735 3.58735,6.5 0,6.5 C-3.58735,6.5 -6.5,3.58735 -6.5,0 C-6.5,-3.58735 -3.58735,-6.5 0,-6.5z" style="display: block;"/></g></g><g transform="matrix(-0.0022164736594446196,0,0,-0.0022164736594446196,34.76421333437975,125)" opacity="1" style="user-select: none; display: block;"><g opacity="1" transform="matrix(1,0,0,1,0,0)"><path fill="rgb(30,49,100)" fill-opacity="1" d="M0 0 M0,-6.5 C3.58735,-6.5 6.5,-3.58735 6.5,0 C6.5,3.58735 3.58735,6.5 0,6.5 C-3.58735,6.5 -6.5,3.58735 -6.5,0 C-6.5,-3.58735 -3.58735,-6.5 0,-6.5z" style="display: block;"/></g></g><g transform="matrix(-0.01688106663007459,0,0,-0.01688106663007459,13.430880001046376,125)" opacity="1" style="user-select: none; display: block;"><g opacity="1" transform="matrix(1,0,0,1,0,0)"><path fill="rgb(30,49,100)" fill-opacity="1" d="M0 0 M0,-6.5 C3.58735,-6.5 6.5,-3.58735 6.5,0 C6.5,3.58735 3.58735,6.5 0,6.5 C-3.58735,6.5 -6.5,3.58735 -6.5,0 C-6.5,-3.58735 -3.58735,-6.5 0,-6.5z" style="display: block;"/></g></g><g transform="matrix(-0.0055186387161762175,0,0,-0.0055186387161762175,2.764213334379747,125)" opacity="1" style="user-select: none; display: block;"><g opacity="1" transform="matrix(1,0,0,1,0,0)"><path fill="rgb(30,49,100)" fill-opacity="1" d="M0 0 M0,-6.5 C3.58735,-6.5 6.5,-3.58735 6.5,0 C6.5,3.58735 3.58735,6.5 0,6.5 C-3.58735,6.5 -6.5,3.58735 -6.5,0 C-6.5,-3.58735 -3.58735,-6.5 0,-6.5z" style="display: block;"/></g></g><g transform="matrix(0.0030588932348677472,0,0,0.0030588932348677472,-18.56911999895351,125)" opacity="1" style="user-select: none; display: block;"><g opacity="1" transform="matrix(1,0,0,1,0,0)"><path fill="rgb(30,49,100)" fill-opacity="1" d="M0 0 M0,-6.5 C3.58735,-6.5 6.5,-3.58735 6.5,0 C6.5,3.58735 3.58735,6.5 0,6.5 C-3.58735,6.5 -6.5,3.58735 -6.5,0 C-6.5,-3.58735 -3.58735,-6.5 0,-6.5z" style="display: block;"/></g></g><g transform="matrix(0.0004335572296634521,0,0,0.0004335572296634521,-39.90245333228688,125)" opacity="1" style="user-select: none;"><g opacity="1" transform="matrix(1,0,0,1,0,0)"><path fill="rgb(30,49,100)" fill-opacity="1" d="M0 0 M0,-6.5 C3.58735,-6.5 6.5,-3.58735 6.5,0 C6.5,3.58735 3.58735,6.5 0,6.5 C-3.58735,6.5 -6.5,3.58735 -6.5,0 C-6.5,-3.58735 -3.58735,-6.5 0,-6.5z"/></g></g><g transform="matrix(-0.000311155776355104,0,0,-0.000311155776355104,-50,125)" opacity="1" style="user-select: none;"><g opacity="1" transform="matrix(1,0,0,1,0,0)"><path fill="rgb(30,49,100)" fill-opacity="1" d="M0 0 M0,-6.5 C3.58735,-6.5 6.5,-3.58735 6.5,0 C6.5,3.58735 3.58735,6.5 0,6.5 C-3.58735,6.5 -6.5,3.58735 -6.5,0 C-6.5,-3.58735 -3.58735,-6.5 0,-6.5z"/></g></g><g transform="matrix(-0.00002345860797982167,0,0,-0.00002345860797982167,-50,125)" opacity="1" style="user-select: none;"><g opacity="1" transform="matrix(1,0,0,1,0,0)"><path fill="rgb(30,49,100)" fill-opacity="1" d="M0 0 M0,-18.5 C10.210149999999999,-18.5 18.5,-10.210149999999999 18.5,0 C18.5,10.210149999999999 10.210149999999999,18.5 0,18.5 C-10.210149999999999,18.5 -18.5,10.210149999999999 -18.5,0 C-18.5,-10.210149999999999 -10.210149999999999,-18.5 0,-18.5z"/><path stroke-linecap="butt" stroke-linejoin="miter" fill-opacity="0" stroke-miterlimit="4" stroke="rgb(30,49,100)" stroke-opacity="1" stroke-width="7" d="M0 0 M0,-18.5 C10.210149999999999,-18.5 18.5,-10.210149999999999 18.5,0 C18.5,10.210149999999999 10.210149999999999,18.5 0,18.5 C-10.210149999999999,18.5 -18.5,10.210149999999999 -18.5,0 C-18.5,-10.210149999999999 -10.210149999999999,-18.5 0,-18.5z"/></g></g><g transform="matrix(0.00004826388896477947,0,0,0.00004826388896477947,-50,125)" opacity="1" style="user-select: none;"><g opacity="1" transform="matrix(1,0,0,1,0,0)"><path fill="rgb(30,49,100)" fill-opacity="1" d="M0 0 M0,-6.5 C3.58735,-6.5 6.5,-3.58735 6.5,0 C6.5,3.58735 3.58735,6.5 0,6.5 C-3.58735,6.5 -6.5,3.58735 -6.5,0 C-6.5,-3.58735 -3.58735,-6.5 0,-6.5z"/></g></g><g transform="matrix(0,0,0,0,-50,125)" opacity="1" style="user-select: none;"><g opacity="1" transform="matrix(1,0,0,1,0,0)"><path fill="rgb(30,49,100)" fill-opacity="1" d="M0 0 M0,-6.5 C3.58735,-6.5 6.5,-3.58735 6.5,0 C6.5,3.58735 3.58735,6.5 0,6.5 C-3.58735,6.5 -6.5,3.58735 -6.5,0 C-6.5,-3.58735 -3.58735,-6.5 0,-6.5z"/></g></g><g transform="matrix(0,0,0,0,-50,125)" opacity="1" style="user-select: none;"><g opacity="1" transform="matrix(1,0,0,1,0,0)"><path fill="rgb(30,49,100)" fill-opacity="1" d="M0 0 M0,-6.5 C3.58735,-6.5 6.5,-3.58735 6.5,0 C6.5,3.58735 3.58735,6.5 0,6.5 C-3.58735,6.5 -6.5,3.58735 -6.5,0 C-6.5,-3.58735 -3.58735,-6.5 0,-6.5z"/></g></g><g transform="matrix(0,0,0,0,-50,125)" opacity="1" style="user-select: none;"><g opacity="1" transform="matrix(1,0,0,1,0,0)"><path fill="rgb(30,49,100)" fill-opacity="1" d="M0 0 M0,-6.5 C3.58735,-6.5 6.5,-3.58735 6.5,0 C6.5,3.58735 3.58735,6.5 0,6.5 C-3.58735,6.5 -6.5,3.58735 -6.5,0 C-6.5,-3.58735 -3.58735,-6.5 0,-6.5z"/></g></g><g transform="matrix(0,0,0,0,-50,125)" opacity="1" style="user-select: none;"><g opacity="1" transform="matrix(1,0,0,1,0,0)"><path fill="rgb(30,49,100)" fill-opacity="1" d="M0 0 M0,-18.5 C10.210149999999999,-18.5 18.5,-10.210149999999999 18.5,0 C18.5,10.210149999999999 10.210149999999999,18.5 0,18.5 C-10.210149999999999,18.5 -18.5,10.210149999999999 -18.5,0 C-18.5,-10.210149999999999 -10.210149999999999,-18.5 0,-18.5z"/><path stroke-linecap="butt" stroke-linejoin="miter" fill-opacity="0" stroke-miterlimit="4" stroke="rgb(30,49,100)" stroke-opacity="1" stroke-width="7" d="M0 0 M0,-18.5 C10.210149999999999,-18.5 18.5,-10.210149999999999 18.5,0 C18.5,10.210149999999999 10.210149999999999,18.5 0,18.5 C-10.210149999999999,18.5 -18.5,10.210149999999999 -18.5,0 C-18.5,-10.210149999999999 -10.210149999999999,-18.5 0,-18.5z"/></g></g><g transform="matrix(0,0,0,0,-50,125)" opacity="1" style="user-select: none;"><g opacity="1" transform="matrix(1,0,0,1,0,0)"><path fill="rgb(30,49,100)" fill-opacity="1" d="M0 0 M0,-6.5 C3.58735,-6.5 6.5,-3.58735 6.5,0 C6.5,3.58735 3.58735,6.5 0,6.5 C-3.58735,6.5 -6.5,3.58735 -6.5,0 C-6.5,-3.58735 -3.58735,-6.5 0,-6.5z"/></g></g><g transform="matrix(0,0,0,0,-50,125)" opacity="1" style="user-select: none;"><g opacity="1" transform="matrix(1,0,0,1,0,0)"><path fill="rgb(30,49,100)" fill-opacity="1" d="M0 0 M0,-18.5 C10.210149999999999,-18.5 18.5,-10.210149999999999 18.5,0 C18.5,10.210149999999999 10.210149999999999,18.5 0,18.5 C-10.210149999999999,18.5 -18.5,10.210149999999999 -18.5,0 C-18.5,-10.210149999999999 -10.210149999999999,-18.5 0,-18.5z"/><path stroke-linecap="butt" stroke-linejoin="miter" fill-opacity="0" stroke-miterlimit="4" stroke="rgb(30,49,100)" stroke-opacity="1" stroke-width="7" d="M0 0 M0,-18.5 C10.210149999999999,-18.5 18.5,-10.210149999999999 18.5,0 C18.5,10.210149999999999 10.210149999999999,18.5 0,18.5 C-10.210149999999999,18.5 -18.5,10.210149999999999 -18.5,0 C-18.5,-10.210149999999999 -10.210149999999999,-18.5 0,-18.5z"/></g></g><g transform="matrix(0,0,0,0,-50,125)" opacity="1" style="user-select: none;"><g opacity="1" transform="matrix(1,0,0,1,0,0)"><path fill="rgb(30,49,100)" fill-opacity="1" d="M0 0 M0,-6.5 C3.58735,-6.5 6.5,-3.58735 6.5,0 C6.5,3.58735 3.58735,6.5 0,6.5 C-3.58735,6.5 -6.5,3.58735 -6.5,0 C-6.5,-3.58735 -3.58735,-6.5 0,-6.5z"/></g></g><g transform="matrix(0,0,0,0,-50,125)" opacity="1" style="user-select: none;"><g opacity="1" transform="matrix(1,0,0,1,0,0)"><path fill="rgb(30,49,100)" fill-opacity="1" d="M0 0 M0,-6.5 C3.58735,-6.5 6.5,-3.58735 6.5,0 C6.5,3.58735 3.58735,6.5 0,6.5 C-3.58735,6.5 -6.5,3.58735 -6.5,0 C-6.5,-3.58735 -3.58735,-6.5 0,-6.5z"/></g></g><g transform="matrix(0,0,0,0,-50,125)" opacity="1" style="user-select: none;"><g opacity="1" transform="matrix(1,0,0,1,0,0)"><path fill="rgb(30,49,100)" fill-opacity="1" d="M0 0 M0,-6.5 C3.58735,-6.5 6.5,-3.58735 6.5,0 C6.5,3.58735 3.58735,6.5 0,6.5 C-3.58735,6.5 -6.5,3.58735 -6.5,0 C-6.5,-3.58735 -3.58735,-6.5 0,-6.5z"/></g></g><g transform="matrix(0,0,0,0,-50,125)" opacity="1" style="user-select: none;"><g opacity="1" transform="matrix(1,0,0,1,0,0)"><path fill="rgb(30,49,100)" fill-opacity="1" d="M0 0 M0,-6.5 C3.58735,-6.5 6.5,-3.58735 6.5,0 C6.5,3.58735 3.58735,6.5 0,6.5 C-3.58735,6.5 -6.5,3.58735 -6.5,0 C-6.5,-3.58735 -3.58735,-6.5 0,-6.5z"/></g></g><g transform="matrix(0,0,0,0,-50,125)" opacity="1" style="user-select: none;"><g opacity="1" transform="matrix(1,0,0,1,0,0)"><path fill="rgb(30,49,100)" fill-opacity="1" d="M0 0 M0,-6.5 C3.58735,-6.5 6.5,-3.58735 6.5,0 C6.5,3.58735 3.58735,6.5 0,6.5 C-3.58735,6.5 -6.5,3.58735 -6.5,0 C-6.5,-3.58735 -3.58735,-6.5 0,-6.5z"/></g></g><g transform="matrix(0,0,0,0,-50,125)" opacity="1" style="user-select: none;"><g opacity="1" transform="matrix(1,0,0,1,0,0)"><path fill="rgb(30,49,100)" fill-opacity="1" d="M0 0 M0,-6.5 C3.58735,-6.5 6.5,-3.58735 6.5,0 C6.5,3.58735 3.58735,6.5 0,6.5 C-3.58735,6.5 -6.5,3.58735 -6.5,0 C-6.5,-3.58735 -3.58735,-6.5 0,-6.5z"/></g></g><g transform="matrix(0,0,0,0,-50,125)" opacity="1" style="user-select: none;"><g opacity="1" transform="matrix(1,0,0,1,0,0)"><path fill="rgb(30,49,100)" fill-opacity="1" d="M0 0 M0,-6.5 C3.58735,-6.5 6.5,-3.58735 6.5,0 C6.5,3.58735 3.58735,6.5 0,6.5 C-3.58735,6.5 -6.5,3.58735 -6.5,0 C-6.5,-3.58735 -3.58735,-6.5 0,-6.5z"/></g></g><g transform="matrix(0,0,0,0,-50,125)" opacity="1" style="user-select: none;"><g opacity="1" transform="matrix(1,0,0,1,0,0)"><path fill="rgb(30,49,100)" fill-opacity="1" d="M0 0 M0,-6.5 C3.58735,-6.5 6.5,-3.58735 6.5,0 C6.5,3.58735 3.58735,6.5 0,6.5 C-3.58735,6.5 -6.5,3.58735 -6.5,0 C-6.5,-3.58735 -3.58735,-6.5 0,-6.5z"/></g></g><g transform="matrix(0,0,0,0,-50,125)" opacity="1" style="user-select: none;"><g opacity="1" transform="matrix(1,0,0,1,0,0)"><path fill="rgb(30,49,100)" fill-opacity="1" d="M0 0 M0,-18.5 C10.210149999999999,-18.5 18.5,-10.210149999999999 18.5,0 C18.5,10.210149999999999 10.210149999999999,18.5 0,18.5 C-10.210149999999999,18.5 -18.5,10.210149999999999 -18.5,0 C-18.5,-10.210149999999999 -10.210149999999999,-18.5 0,-18.5z"/><path stroke-linecap="butt" stroke-linejoin="miter" fill-opacity="0" stroke-miterlimit="4" stroke="rgb(30,49,100)" stroke-opacity="1" stroke-width="7" d="M0 0 M0,-18.5 C10.210149999999999,-18.5 18.5,-10.210149999999999 18.5,0 C18.5,10.210149999999999 10.210149999999999,18.5 0,18.5 C-10.210149999999999,18.5 -18.5,10.210149999999999 -18.5,0 C-18.5,-10.210149999999999 -10.210149999999999,-18.5 0,-18.5z"/></g></g><g transform="matrix(0,0,0,0,-50,125)" opacity="1" style="user-select: none;"><g opacity="1" transform="matrix(1,0,0,1,0,0)"><path fill="rgb(30,49,100)" fill-opacity="1" d="M0 0 M0,-18.5 C10.210149999999999,-18.5 18.5,-10.210149999999999 18.5,0 C18.5,10.210149999999999 10.210149999999999,18.5 0,18.5 C-10.210149999999999,18.5 -18.5,10.210149999999999 -18.5,0 C-18.5,-10.210149999999999 -10.210149999999999,-18.5 0,-18.5z"/><path stroke-linecap="butt" stroke-linejoin="miter" fill-opacity="0" stroke-miterlimit="4" stroke="rgb(30,49,100)" stroke-opacity="1" stroke-width="7" d="M0 0 M0,-18.5 C10.210149999999999,-18.5 18.5,-10.210149999999999 18.5,0 C18.5,10.210149999999999 10.210149999999999,18.5 0,18.5 C-10.210149999999999,18.5 -18.5,10.210149999999999 -18.5,0 C-18.5,-10.210149999999999 -10.210149999999999,-18.5 0,-18.5z"/></g></g><g transform="matrix(0,0,0,0,-50,125)" opacity="1" style="user-select: none;"><g opacity="1" transform="matrix(1,0,0,1,0,0)"><path fill="rgb(30,49,100)" fill-opacity="1" d="M0 0 M0,-6.5 C3.58735,-6.5 6.5,-3.58735 6.5,0 C6.5,3.58735 3.58735,6.5 0,6.5 C-3.58735,6.5 -6.5,3.58735 -6.5,0 C-6.5,-3.58735 -3.58735,-6.5 0,-6.5z"/></g></g><g transform="matrix(0,0,0,0,-50,125)" opacity="1" style="user-select: none;"><g opacity="1" transform="matrix(1,0,0,1,0,0)"><path fill="rgb(30,49,100)" fill-opacity="1" d="M0 0 M0,-6.5 C3.58735,-6.5 6.5,-3.58735 6.5,0 C6.5,3.58735 3.58735,6.5 0,6.5 C-3.58735,6.5 -6.5,3.58735 -6.5,0 C-6.5,-3.58735 -3.58735,-6.5 0,-6.5z"/></g></g><g transform="matrix(0,0,0,0,-50,125)" opacity="1" style="user-select: none;"><g opacity="1" transform="matrix(1,0,0,1,0,0)"><path fill="rgb(30,49,100)" fill-opacity="1" d="M0 0 M0,-6.5 C3.58735,-6.5 6.5,-3.58735 6.5,0 C6.5,3.58735 3.58735,6.5 0,6.5 C-3.58735,6.5 -6.5,3.58735 -6.5,0 C-6.5,-3.58735 -3.58735,-6.5 0,-6.5z"/></g></g><g transform="matrix(0,0,0,0,-50,125)" opacity="1" style="user-select: none;"><g opacity="1" transform="matrix(1,0,0,1,0,0)"><path fill="rgb(30,49,100)" fill-opacity="1" d="M0 0 M0,-6.5 C3.58735,-6.5 6.5,-3.58735 6.5,0 C6.5,3.58735 3.58735,6.5 0,6.5 C-3.58735,6.5 -6.5,3.58735 -6.5,0 C-6.5,-3.58735 -3.58735,-6.5 0,-6.5z"/></g></g><g transform="matrix(0,0,0,0,-50,125)" opacity="1" style="user-select: none;"><g opacity="1" transform="matrix(1,0,0,1,0,0)"><path fill="rgb(30,49,100)" fill-opacity="1" d="M0 0 M0,-6.5 C3.58735,-6.5 6.5,-3.58735 6.5,0 C6.5,3.58735 3.58735,6.5 0,6.5 C-3.58735,6.5 -6.5,3.58735 -6.5,0 C-6.5,-3.58735 -3.58735,-6.5 0,-6.5z"/></g></g><g transform="matrix(0,0,0,0,-50,125)" opacity="1" style="user-select: none;"><g opacity="1" transform="matrix(1,0,0,1,0,0)"><path fill="rgb(30,49,100)" fill-opacity="1" d="M0 0 M0,-6.5 C3.58735,-6.5 6.5,-3.58735 6.5,0 C6.5,3.58735 3.58735,6.5 0,6.5 C-3.58735,6.5 -6.5,3.58735 -6.5,0 C-6.5,-3.58735 -3.58735,-6.5 0,-6.5z"/></g></g><g transform="matrix(0,0,0,0,-50,125)" opacity="1" style="user-select: none;"><g opacity="1" transform="matrix(1,0,0,1,0,0)"><path fill="rgb(30,49,100)" fill-opacity="1" d="M0 0 M0,-6.5 C3.58735,-6.5 6.5,-3.58735 6.5,0 C6.5,3.58735 3.58735,6.5 0,6.5 C-3.58735,6.5 -6.5,3.58735 -6.5,0 C-6.5,-3.58735 -3.58735,-6.5 0,-6.5z"/></g></g><g transform="matrix(0,0,0,0,-50,125)" opacity="1" style="user-select: none;"><g opacity="1" transform="matrix(1,0,0,1,0,0)"><path fill="rgb(30,49,100)" fill-opacity="1" d="M0 0 M0,-18.5 C10.210149999999999,-18.5 18.5,-10.210149999999999 18.5,0 C18.5,10.210149999999999 10.210149999999999,18.5 0,18.5 C-10.210149999999999,18.5 -18.5,10.210149999999999 -18.5,0 C-18.5,-10.210149999999999 -10.210149999999999,-18.5 0,-18.5z"/><path stroke-linecap="butt" stroke-linejoin="miter" fill-opacity="0" stroke-miterlimit="4" stroke="rgb(30,49,100)" stroke-opacity="1" stroke-width="7" d="M0 0 M0,-18.5 C10.210149999999999,-18.5 18.5,-10.210149999999999 18.5,0 C18.5,10.210149999999999 10.210149999999999,18.5 0,18.5 C-10.210149999999999,18.5 -18.5,10.210149999999999 -18.5,0 C-18.5,-10.210149999999999 -10.210149999999999,-18.5 0,-18.5z"/></g></g><g transform="matrix(0,0,0,0,-50,125)" opacity="1" style="user-select: none;"><g opacity="1" transform="matrix(1,0,0,1,0,0)"><path fill="rgb(30,49,100)" fill-opacity="1" d="M0 0 M0,-6.5 C3.58735,-6.5 6.5,-3.58735 6.5,0 C6.5,3.58735 3.58735,6.5 0,6.5 C-3.58735,6.5 -6.5,3.58735 -6.5,0 C-6.5,-3.58735 -3.58735,-6.5 0,-6.5z"/></g></g></g></g></g>

</svg>